<svg 
 xmlns="http://www.w3.org/2000/svg"
 xmlns:xlink="http://www.w3.org/1999/xlink"
 viewBox="0 0 90 90"
>
<path fill-rule="evenodd"  fill="rgb(255, 255, 255)"
 d="M82.048,-0.000 L7.952,-0.000 C3.560,-0.000 -0.000,3.560 -0.000,7.952 L-0.000,82.048 C-0.000,86.440 3.560,90.000 7.952,90.000 L48.072,90.000 L48.072,55.148 L36.343,55.148 L36.343,41.565 L48.072,41.565 L48.072,31.548 C48.072,19.923 55.171,13.593 65.542,13.593 C70.509,13.593 74.779,13.963 76.023,14.129 L76.023,26.277 L68.830,26.280 C63.190,26.280 62.099,28.960 62.099,32.893 L62.099,41.565 L75.549,41.565 L73.797,55.148 L62.099,55.148 L62.099,90.000 L82.048,90.000 C86.440,90.000 90.000,86.440 90.000,82.048 L90.000,7.952 C90.000,3.560 86.440,-0.000 82.048,-0.000 Z"/>
</svg>