<?xml version="1.0" encoding="UTF-8" standalone="no"?>
<!-- Generator: Adobe Illustrator 19.2.0, SVG Export Plug-In . SVG Version: 6.00 Build 0)  -->

<svg
   xmlns:dc="http://purl.org/dc/elements/1.1/"
   xmlns:cc="http://creativecommons.org/ns#"
   xmlns:rdf="http://www.w3.org/1999/02/22-rdf-syntax-ns#"
   xmlns:svg="http://www.w3.org/2000/svg"
   xmlns="http://www.w3.org/2000/svg"
   xmlns:sodipodi="http://sodipodi.sourceforge.net/DTD/sodipodi-0.dtd"
   xmlns:inkscape="http://www.inkscape.org/namespaces/inkscape"
   version="1.1"
   id="Layer_1"
   x="0px"
   y="0px"
   viewBox="0 0 150 150"
   xml:space="preserve"
   inkscape:version="0.91 r13725"
   sodipodi:docname="iconVideoPlay.svg"
   width="150"
   height="150"><metadata
     id="metadata15"><rdf:RDF><cc:Work
         rdf:about=""><dc:format>image/svg+xml</dc:format><dc:type
           rdf:resource="http://purl.org/dc/dcmitype/StillImage" /><dc:title></dc:title></cc:Work></rdf:RDF></metadata><defs
     id="defs13" /><sodipodi:namedview
     pagecolor="#ffffff"
     bordercolor="#666666"
     borderopacity="1"
     objecttolerance="10"
     gridtolerance="10"
     guidetolerance="10"
     inkscape:pageopacity="0"
     inkscape:pageshadow="2"
     inkscape:window-width="1785"
     inkscape:window-height="977"
     id="namedview11"
     showgrid="false"
     showborder="true"
     inkscape:zoom="2"
     inkscape:cx="-13.25"
     inkscape:cy="59"
     inkscape:window-x="0"
     inkscape:window-y="0"
     inkscape:window-maximized="0"
     inkscape:current-layer="Layer_1" /><style
     type="text/css"
     id="style3">
	.st0{fill:none;}
	.st1{opacity:0.5;}
	.st2{fill:#FFFFFF;}
</style><polygon
     class="st1"
     points="6.5,117.8 97.9,64.1 6.4,11.8 6.5,86.9 12.3,90.3 12.2,23.2 85.6,64.1 25.7,97.6 25.7,97.6 6.5,109.9 "
     id="polygon6"
     style="opacity:0.5"
     transform="matrix(1.2711864,0,0,1.2711864,14,-0.5)" /><rect
     id="_x3C_Slice_x3E__1_"
     class="st0"
     width="124.57627"
     height="150"
     x="14"
     y="-0.5"
     style="fill:none" /><polygon
     class="st2"
     points="0.6,109.5 94,55 0.6,0.5 0.6,77.5 6.6,81.1 6.6,12.3 81.2,55 20.8,89.6 20.8,89.6 0.6,101.3 "
     id="polygon9"
     style="fill:#ffffff"
     transform="matrix(1.2711864,0,0,1.2711864,14,-0.5)" /></svg>