<?xml version="1.0" encoding="UTF-8" standalone="no"?>
<!-- Generator: Adobe Illustrator 15.1.0, SVG Export Plug-In  -->

<svg
   xmlns:dc="http://purl.org/dc/elements/1.1/"
   xmlns:cc="http://creativecommons.org/ns#"
   xmlns:rdf="http://www.w3.org/1999/02/22-rdf-syntax-ns#"
   xmlns:svg="http://www.w3.org/2000/svg"
   xmlns="http://www.w3.org/2000/svg"
   xmlns:xlink="http://www.w3.org/1999/xlink"
   xmlns:sodipodi="http://sodipodi.sourceforge.net/DTD/sodipodi-0.dtd"
   xmlns:inkscape="http://www.inkscape.org/namespaces/inkscape"
   version="1.1"
   x="0px"
   y="0px"
   width="592.50958"
   height="593.74048"
   viewBox="77.477 77.316 592.50958 593.74048"
   enable-background="new 77.477 77.316 842 595"
   xml:space="preserve"
   id="svg2"
   inkscape:version="0.91 r13725"
   sodipodi:docname="cizo-logo.svg"><metadata
     id="metadata38"><rdf:RDF><cc:Work
         rdf:about=""><dc:format>image/svg+xml</dc:format><dc:type
           rdf:resource="http://purl.org/dc/dcmitype/StillImage" /><dc:title></dc:title></cc:Work></rdf:RDF></metadata><sodipodi:namedview
     pagecolor="#ffffff"
     bordercolor="#666666"
     borderopacity="1"
     objecttolerance="10"
     gridtolerance="10"
     guidetolerance="10"
     inkscape:pageopacity="0"
     inkscape:pageshadow="2"
     inkscape:window-width="1920"
     inkscape:window-height="1018"
     id="namedview36"
     showgrid="false"
     inkscape:zoom="0.39663866"
     inkscape:cx="185.26906"
     inkscape:cy="296.24047"
     inkscape:window-x="-8"
     inkscape:window-y="-8"
     inkscape:window-maximized="1"
     inkscape:current-layer="svg2"
     fit-margin-top="0"
     fit-margin-left="0"
     fit-margin-right="0"
     fit-margin-bottom="0" /><defs
     id="defs4" /><g
     id="g3366"
     transform="matrix(3.652439,0,0,3.652439,-205.50302,-205.07597)"><g
       id="g6"><defs
         id="defs8"><path
           d="m 121.59,77.316 c 0,0 -40.02,0.004 -44.113,37.976 l 0,84.605 c 1.378,11.275 8.395,39.979 44.113,39.979 l 73.661,0 c 0,0 44.449,0 44.449,-44.45 l 0,-73.66 c 0,0 0,-44.45 -44.449,-44.45 l -73.661,0 z"
           id="SVGID_2_"
           inkscape:connector-curvature="0" /></defs><clipPath
         id="SVGID_3_"><use
           id="use12"
           overflow="visible"
           xlink:href="#SVGID_2_"
           style="overflow:visible"
           x="0"
           y="0"
           width="100%"
           height="100%" /></clipPath><linearGradient
         gradientTransform="matrix(-127.6032,174.3369,174.3369,127.6032,-106740.76,-99159.273)"
         y2="670.78998"
         x2="79.161598"
         y1="670.78998"
         x1="78.162102"
         gradientUnits="userSpaceOnUse"
         id="SVGID_4_"><stop
           id="stop15"
           style="stop-color:#2C3D51"
           offset="0" /><stop
           id="stop17"
           style="stop-color:#1C1F24"
           offset="1" /></linearGradient><polygon
         id="polygon19"
         points="134.067,0 317.176,134.024 183.11,317.192 0,183.168 "
         clip-path="url(#SVGID_3_)"
         style="fill:url(#SVGID_4_)" /></g><g
       id="g21"><defs
         id="defs23"><path
           d="m 109.917,157.864 c 0,26.442 21.512,47.953 47.953,47.953 22.236,0 40.983,-15.215 46.386,-35.78 l -7.885,-1.981 c -4.514,17.038 -20.063,29.634 -38.501,29.634 -21.96,0 -39.825,-17.865 -39.825,-39.825 0,-21.96 17.865,-39.825 39.825,-39.825 4.633,0 9.08,0.798 13.219,2.259 l 3.373,-7.426 c -5.173,-1.914 -10.763,-2.961 -16.592,-2.961 -26.441,-0.001 -47.953,21.509 -47.953,47.952"
           id="SVGID_1_"
           inkscape:connector-curvature="0" /></defs><clipPath
         id="SVGID_5_"><use
           id="use27"
           overflow="visible"
           xlink:href="#SVGID_1_"
           style="overflow:visible"
           x="0"
           y="0"
           width="100%"
           height="100%" /></clipPath><linearGradient
         gradientTransform="matrix(-35.355,-59.3314,-59.3314,35.355,43218.676,-18830.373)"
         y2="676.33197"
         x2="83.481903"
         y1="676.33197"
         x1="82.481903"
         gradientUnits="userSpaceOnUse"
         id="SVGID_6_"><stop
           id="stop30"
           style="stop-color:#3CFFEE"
           offset="0" /><stop
           id="stop32"
           style="stop-color:#24AABC"
           offset="1" /></linearGradient><polygon
         id="polygon34"
         points="246.43,180.686 134.638,247.302 67.743,135.042 179.536,68.426 "
         clip-path="url(#SVGID_5_)"
         style="fill:url(#SVGID_6_)" /></g></g></svg>