<?xml version="1.0" encoding="UTF-8" standalone="no"?>
<!-- Created with Inkscape (http://www.inkscape.org/) -->

<svg
   xmlns:dc="http://purl.org/dc/elements/1.1/"
   xmlns:cc="http://creativecommons.org/ns#"
   xmlns:rdf="http://www.w3.org/1999/02/22-rdf-syntax-ns#"
   xmlns:svg="http://www.w3.org/2000/svg"
   xmlns="http://www.w3.org/2000/svg"
   xmlns:sodipodi="http://sodipodi.sourceforge.net/DTD/sodipodi-0.dtd"
   xmlns:inkscape="http://www.inkscape.org/namespaces/inkscape"
   width="195.86612mm"
   height="106.11556mm"
   viewBox="0 0 694.01381 376.00002"
   id="svg7373"
   version="1.1"
   inkscape:version="0.91 r13725"
   sodipodi:docname="iconCategoryMovie.svg">
  <defs
     id="defs7375" />
  <sodipodi:namedview
     id="base"
     pagecolor="#ffffff"
     bordercolor="#666666"
     borderopacity="1.0"
     inkscape:pageopacity="0.0"
     inkscape:pageshadow="2"
     inkscape:zoom="1.4"
     inkscape:cx="475.32355"
     inkscape:cy="283.44782"
     inkscape:document-units="px"
     inkscape:current-layer="layer1"
     showgrid="false"
     fit-margin-top="0"
     fit-margin-left="0"
     fit-margin-right="0"
     fit-margin-bottom="0"
     inkscape:window-width="1920"
     inkscape:window-height="1018"
     inkscape:window-x="1912"
     inkscape:window-y="-8"
     inkscape:window-maximized="1" />
  <metadata
     id="metadata7378">
    <rdf:RDF>
      <cc:Work
         rdf:about="">
        <dc:format>image/svg+xml</dc:format>
        <dc:type
           rdf:resource="http://purl.org/dc/dcmitype/StillImage" />
        <dc:title></dc:title>
      </cc:Work>
    </rdf:RDF>
  </metadata>
  <g
     inkscape:label="Layer 1"
     inkscape:groupmode="layer"
     id="layer1"
     transform="translate(-18.700492,-12.933633)">
    <g
       id="g7392">
      <path
         style="fill-opacity:1"
         d="m 18.714277,319.93366 0,-69 6.289901,0 c 3.459446,0 8.935291,-0.68904 12.168545,-1.53119 37.877099,-9.86573 50.650263,-56.6683 22.915076,-83.96388 -9.241974,-9.09549 -22.325994,-14.50493 -35.083621,-14.50493 l -6.289901,0 0,-68.999997 0,-69 347.000003,0 347,0 0,69 0,68.999997 -5.45078,0 c -13.05666,0 -25.01425,4.76166 -34.69212,13.81483 -21.25817,19.88598 -21.25817,52.48436 0,72.37034 9.67787,9.05317 21.63546,13.81483 34.69212,13.81483 l 5.45078,0 0,37.5 0,37.5 -5.5,0 -5.5,0 0,-32.5 0,-32.5 -2.75,-0.0119 c -9.61047,-0.0415 -24.07014,-6.9232 -33.6326,-16.0066 -13.24974,-12.58593 -19.05456,-25.98455 -19.05456,-43.9815 0,-17.99695 5.80482,-31.39557 19.05456,-43.98153 9.56246,-9.0834 24.02213,-15.96512 33.6326,-16.0066 l 2.75,-0.0119 0,-58.499997 0,-58.5 -336,0 -336.000003,0 0,58.278671 0,58.278666 6.974559,1.09822 c 19.932979,3.13868 38.426804,19.128 45.881755,39.66829 2.284407,6.29412 2.604533,8.71254 2.604533,19.67615 0,10.96361 -0.320126,13.38203 -2.604533,19.67615 -7.454951,20.54029 -25.948776,36.52961 -45.881755,39.66829 l -6.974559,1.09822 0,58.27867 0,58.27867 295.000003,0 295,0 0,5.5 0,5.5 -300.5,0 -300.500003,0 0,-69 z m 153.000003,-113.5 0,-129.499997 7.5,0 7.5,0 0,129.499997 0,129.5 -7.5,0 -7.5,0 0,-129.5 z m 386,0 0,-129.499997 7.5,0 7.5,0 0,129.499997 0,129.5 -7.5,0 -7.5,0 0,-129.5 z"
         id="path7406"
         inkscape:connector-curvature="0" />
      <path
         style="fill-opacity:1"
         d="m 18.714277,320.07237 0,-68.8613 8.75,-0.52713 C 67.95227,248.24481 89.269794,202.5218 64.788208,170.6295 55.867153,159.00799 42.59897,152.09514 27.464277,151.18338 l -8.75,-0.52713 0,-68.861293 0,-68.861294 347.000003,0 347,0 0,69 0,68.999997 -6.2899,0 c -13.38904,0 -25.99439,5.46061 -35.53093,15.39192 -9.57387,9.9702 -14.17917,21.21067 -14.17917,34.60808 0,13.39741 4.6053,24.63788 14.17917,34.60808 9.53654,9.93131 22.14189,15.39192 35.53093,15.39192 l 6.2899,0 0,37.5 0,37.5 -5.5,0 -5.5,0 0,-32.5 0,-32.5 -2.75,-0.0119 c -9.61047,-0.0415 -24.07014,-6.9232 -33.6326,-16.0066 -13.24974,-12.58593 -19.05456,-25.98455 -19.05456,-43.9815 0,-17.99695 5.80482,-31.39557 19.05456,-43.98153 9.56246,-9.0834 24.02213,-15.96512 33.6326,-16.0066 l 2.75,-0.0119 0,-58.499997 0,-58.5 -336,0 -336.000003,0 0,58.360709 0,58.360708 4.83975,0.57319 c 20.971214,2.48373 40.602624,19.03184 48.289768,40.70539 3.342554,9.42418 3.342554,28.57582 0,38 -7.687144,21.67355 -27.318554,38.22166 -48.289768,40.70539 l -4.83975,0.57319 0,58.36071 0,58.36071 295.000003,0 295,0 0,5.5 0,5.5 -300.5,0 -300.500003,0 0,-68.86129 z m 153.000003,-113.63871 0,-129.499997 7.5,0 7.5,0 0,129.499997 0,129.5 -7.5,0 -7.5,0 0,-129.5 z m 386,0 0,-129.499997 7.5,0 7.5,0 0,129.499997 0,129.5 -7.5,0 -7.5,0 0,-129.5 z"
         id="path7404"
         inkscape:connector-curvature="0" />
      <path
         style="fill-opacity:1"
         d="m 19.380944,388.26699 c -0.366667,-0.36666 -0.666667,-31.41666 -0.666667,-69 l 0,-68.33333 5.950779,0 c 19.540109,0 37.121299,-10.91069 45.435597,-28.19683 16.114919,-33.5043 -8.123511,-71.80317 -45.44249,-71.80317 l -5.957671,0 0.256893,-68.749997 0.256892,-68.75 346.500003,0 346.5,0 0,68.5 0,68.499997 -8.5,0.65348 c -19.26126,1.48079 -33.63598,11.23507 -42.28791,28.69538 l -4.21209,8.50036 0,12.65078 0,12.65078 4.21209,8.50036 c 8.65193,17.46031 23.02665,27.21459 42.28791,28.69538 l 8.5,0.65348 0,37 0,37 -5.25,0.30226 -5.25,0.30226 0,-32.42343 0,-32.42343 -5.10605,-0.67734 c -15.80468,-2.09657 -32.40621,-13.28275 -41.88056,-28.21931 -11.19536,-17.64977 -11.19536,-45.07225 0,-62.72202 9.47435,-14.93656 26.07588,-26.12274 41.88056,-28.21931 l 5.10605,-0.67734 0,-58.371168 0,-58.371169 -336,0 -336.000003,0 0,58.5 0,58.499997 2.948378,0 c 1.621608,0 6.459108,1.10925 10.75,2.46501 30.227168,9.5506 48.138515,41.39303 40.369765,71.76855 -4.136937,16.17527 -13.235126,28.60866 -27.568143,37.67402 -5.504132,3.48126 -18.924137,8.09242 -23.551622,8.09242 l -2.948378,0 0,58.5 0,58.5 295.000003,0 295,0 0,5.5 0,5.5 -299.83333,0 c -164.90834,0 -300.13334,-0.3 -300.500006,-0.66667 z m 152.333336,-181.83333 0,-129.499997 7.5,0 7.5,0 0,129.499997 0,129.5 -7.5,0 -7.5,0 0,-129.5 z m 386,0 0,-129.499997 7.5,0 7.5,0 0,129.499997 0,129.5 -7.5,0 -7.5,0 0,-129.5 z"
         id="path7402"
         inkscape:connector-curvature="0" />
      <path
         style="fill-opacity:1"
         d="m 19.714277,319.93366 0,-69 6.25,-0.0119 c 24.07687,-0.0457 45.187501,-18.60968 48.885325,-42.9881 4.437235,-29.25308 -19.306145,-56.93196 -48.885325,-56.98813 l -6.25,-0.0119 0,-68.999997 0,-69 346.000003,0 346,0 0,69 0,68.999997 -6.3185,0 c -15.88703,0 -33.81872,10.32021 -41.90424,24.1171 -9.37348,15.99464 -9.37348,35.77116 0,51.7658 8.08552,13.79689 26.01721,24.1171 41.90424,24.1171 l 6.3185,0 0,37.5 0,37.5 -5,0 -5,0 0,-32.29689 0,-32.29688 -6.72752,-1.15238 c -9.14698,-1.56681 -21.80845,-8.00396 -29.19563,-14.84319 -7.84383,-7.262 -12.8058,-14.9347 -16.40463,-25.36649 -2.53386,-7.34481 -2.94762,-10.01807 -2.94762,-19.04417 0,-9.0261 0.41376,-11.69936 2.94762,-19.04417 3.59883,-10.43179 8.5608,-18.10449 16.40463,-25.36649 7.38718,-6.83923 20.04865,-13.27638 29.19563,-14.84319 l 6.72752,-1.15238 0,-58.79688 0,-58.796887 -336,0 -336.000003,0 0,58.871169 0,58.871168 5.106054,0.67734 c 21.337671,2.83054 41.35296,20.31256 48.178072,42.08032 3.072799,9.80027 3.072799,25.19973 0,35 -6.825112,21.76776 -26.840401,39.24978 -48.178072,42.08032 l -5.106054,0.67734 0,58.87117 0,58.87117 295.000003,0 295,0 0,5 0,5 -300,0 -300.000003,0 0,-69 z m 153.000003,-113.5 0,-129.499997 7,0 7,0 0,129.499997 0,129.5 -7,0 -7,0 0,-129.5 z m 385,0 0,-129.499997 7,0 7,0 0,129.499997 0,129.5 -7,0 -7,0 0,-129.5 z"
         id="path7400"
         inkscape:connector-curvature="0" />
      <path
         style="fill-opacity:1"
         d="m 19.714277,319.93366 0,-69 6.894665,0 c 18.260546,0 35.48811,-11.23051 43.718903,-28.5 4.618105,-9.68951 6.154841,-19.36796 4.564897,-28.75 -4.142258,-24.44289 -24.819147,-42.75 -48.2838,-42.75 l -6.894665,0 0,-68.999997 0,-69 346.000003,0 346,0 0,69 0,68.999997 -6.25,0.0245 c -8.08679,0.0316 -13.82644,1.39619 -21.25,5.05203 -26.9526,13.27321 -36.14912,47.7534 -19.419,72.80696 9.25299,13.85646 24.29597,22.02807 40.669,22.09211 l 6.25,0.0244 0,37.55479 0,37.55479 -4.75,-0.30479 -4.75,-0.30479 -0.26363,-32.07966 -0.26363,-32.07966 -6.73637,-1.22503 c -21.53933,-3.91698 -40.94171,-22.04938 -46.76913,-43.70785 -2.07144,-7.69882 -2.07144,-23.11678 0,-30.8156 4.23216,-15.72948 16.63669,-31.11264 30.57909,-37.92188 7.0767,-3.45615 17.27471,-6.67032 21.16377,-6.67032 1.69964,0 1.7899,-2.97514 1.7899,-58.999997 l 0,-59 -336,0 -336.000003,0 0,58.771946 0,58.771941 6.75,1.25435 c 10.354528,1.92419 21.789541,7.85646 29.862432,15.49208 7.906803,7.47852 12.423969,14.43917 16.142879,24.87508 2.241602,6.29032 2.613738,8.97193 2.613738,18.8346 0,9.86267 -0.372136,12.54428 -2.613738,18.8346 -3.71891,10.43591 -8.236076,17.39656 -16.142879,24.87508 -8.072891,7.63562 -19.507904,13.56789 -29.862432,15.49208 l -6.75,1.25435 0,58.77194 0,58.77195 295.000003,0 295,0 0,5 0,5 -300,0 -300.000003,0 0,-69 z m 153.000003,-113.5 0,-129.499997 7,0 7,0 0,129.499997 0,129.5 -7,0 -7,0 0,-129.5 z m 385,0 0,-129.499997 7,0 7,0 0,129.499997 0,129.5 -7,0 -7,0 0,-129.5 z"
         id="path7398"
         inkscape:connector-curvature="0" />
      <path
         style="fill-opacity:1"
         d="m 19.714277,319.93366 0,-69 6.894665,0 c 28.976093,0 52.842426,-28.15121 48.368869,-57.05285 C 71.238716,169.7242 50.076025,150.93366 26.608942,150.93366 l -6.894665,0 0,-68.999997 0,-69 346.000003,0 346,0 0,68.877681 0,68.877676 -8.75,0.47658 c -10.59452,0.57704 -17.83624,3.15312 -26.22596,9.32928 -27.03856,19.90465 -27.03856,60.97291 0,80.87756 8.38972,6.17616 15.63144,8.75224 26.22596,9.32928 l 8.75,0.47658 0,37.43247 0,37.43247 -4.75,-0.30479 -4.75,-0.30479 -0.26385,-32.25 c -0.2465,-30.12876 -0.38068,-32.25 -2.0399,-32.25 -3.87626,0 -14.08347,-3.21918 -21.14992,-6.67032 -9.65927,-4.71743 -20.09848,-14.99232 -25.22679,-24.82968 -18.28923,-35.08325 0.45469,-77.27828 38.64056,-86.98497 3.27805,-0.83327 6.76555,-1.51503 7.75,-1.51503 1.69964,0 1.7899,-2.97514 1.7899,-58.999997 l 0,-59 -336,0 -336.000003,0 0,58.827148 0,58.827149 6.75,1.22753 c 14.859772,2.70237 30.424794,13.14018 39.207427,26.29228 12.645989,18.93751 12.645989,46.71427 0,65.65178 -8.782633,13.1521 -24.347655,23.58991 -39.207427,26.29228 l -6.75,1.22753 0,58.82715 0,58.82715 295.000003,0 295,0 0,5 0,5 -300,0 -300.000003,0 0,-69 z m 153.000003,-113.5 0,-129.499997 7,0 7,0 0,129.499997 0,129.5 -7,0 -7,0 0,-129.5 z m 385,0 0,-129.499997 7,0 7,0 0,129.499997 0,129.5 -7,0 -7,0 0,-129.5 z"
         id="path7396"
         inkscape:connector-curvature="0" />
      <path
         style="fill-opacity:1"
         d="m 19.723584,319.68366 0.0093,-68.25 6.514838,-0.18606 c 13.358329,-0.38151 24.787852,-5.41369 34.533427,-15.20437 19.86755,-19.95948 19.86755,-50.25966 0,-70.21914 -9.745578,-9.79068 -21.175101,-14.82286 -34.53343,-15.20437 l -6.514837,-0.18606 -0.0093,-68.249997 -0.0093,-68.25 346.000008,0 346,0 0,67.87079 0,67.870787 -7.1332,0.70289 c -20.19376,1.98984 -35.01454,11.9219 -43.35714,29.05553 -6.8844,14.13882 -6.8844,28.86118 0,43 8.34261,17.13363 23.16339,27.06569 43.35714,29.05553 l 7.1332,0.70289 0,36.37079 0,36.37079 -4.48595,0 -4.48596,0 -0.26404,-31.66298 -0.26405,-31.66299 -9.30651,-2.28255 c -18.21618,-4.46777 -32.46401,-15.70183 -40.04082,-31.57122 -4.7125,-9.87017 -6.15268,-16.14808 -6.15268,-26.82026 0,-10.67218 1.44018,-16.95009 6.15268,-26.82026 7.57668,-15.8691 21.8242,-27.10304 40.04082,-31.57154 l 9.3065,-2.28287 0,-58.412662 0,-58.412665 -336.5,0 -336.499998,0 0,58.5 0,58.499997 6.096733,1.20669 c 23.25454,4.60264 40.531187,19.83509 47.401971,41.79331 3.065362,9.79654 3.065362,25.20346 0,35 -6.870784,21.95822 -24.147431,37.19067 -47.401971,41.79331 l -6.096733,1.20669 0,58.5 0,58.5 295.249998,0.25167 295.25,0.25167 0,4.49833 0,4.49833 -300,0 -299.999998,0 0.0093,-68.25 z m 152.990696,-113.25 0,-129.499997 7,0 7,0 0,129.499997 0,129.5 -7,0 -7,0 0,-129.5 z m 385,0 0,-129.499997 7,0 7,0 0,129.499997 0,129.5 -7,0 -7,0 0,-129.5 z"
         id="path7394"
         inkscape:connector-curvature="0" />
    </g>
  </g>
</svg>
