<?xml version="1.0" encoding="UTF-8" standalone="no"?>
<svg
   xmlns:dc="http://purl.org/dc/elements/1.1/"
   xmlns:cc="http://creativecommons.org/ns#"
   xmlns:rdf="http://www.w3.org/1999/02/22-rdf-syntax-ns#"
   xmlns:svg="http://www.w3.org/2000/svg"
   xmlns="http://www.w3.org/2000/svg"
   xmlns:sodipodi="http://sodipodi.sourceforge.net/DTD/sodipodi-0.dtd"
   xmlns:inkscape="http://www.inkscape.org/namespaces/inkscape"
   viewBox="0 0 150 150"
   height="150"
   width="150"
   xml:space="preserve"
   id="svg2"
   version="1.1"
   inkscape:version="0.91 r13725"
   sodipodi:docname="iconEmail.svg"><sodipodi:namedview
     pagecolor="#ffffff"
     bordercolor="#666666"
     borderopacity="1"
     objecttolerance="10"
     gridtolerance="10"
     guidetolerance="10"
     inkscape:pageopacity="0"
     inkscape:pageshadow="2"
     inkscape:window-width="1920"
     inkscape:window-height="1018"
     id="namedview12"
     showgrid="false"
     inkscape:zoom="4.6082601"
     inkscape:cx="86.032391"
     inkscape:cy="72.510601"
     inkscape:window-x="-8"
     inkscape:window-y="-8"
     inkscape:window-maximized="1"
     inkscape:current-layer="svg2" /><metadata
     id="metadata8"><rdf:RDF><cc:Work
         rdf:about=""><dc:format>image/svg+xml</dc:format><dc:type
           rdf:resource="http://purl.org/dc/dcmitype/StillImage" /><dc:title></dc:title></cc:Work></rdf:RDF></metadata><defs
     id="defs6"><clipPath
       id="clipPath18"
       clipPathUnits="userSpaceOnUse"><path
         id="path16"
         d="M 0,640 640,640 640,0 0,0 Z"
         inkscape:connector-curvature="0" /></clipPath></defs><g
     transform="matrix(0.38705319,0,0,-0.38705319,-48.886196,199.57087)"
     id="g10"><g
       id="g12"><g
         clip-path="url(#clipPath18)"
         id="g14"><g
           transform="translate(499.9023,206.6094)"
           id="g20"><path
             id="path22"
             style="fill:#000000;fill-opacity:1;fill-rule:nonzero;stroke:none"
             d="m 0,0 -359.74,0 -0.151,9.664 119.165,94.005 2.184,-1.844 c 16.472,-13.915 26.024,-21.861 28.391,-23.616 13.977,-10.449 24.783,-11.857 33.512,-11.857 16.077,0 27.023,7.499 32.117,11.969 L -115.823,103.45 0.101,9.645 Z m -361.007,206.051 5.776,-4.943 c 3.625,-3.102 7.771,-6.634 12.285,-10.479 l 7.873,-6.71 c 29.093,-24.799 59.441,-50.66 82.666,-70.355 l 3.363,-2.852 -111.963,-83.108 z M 12.15,162.902 1.226,154.37 l 0,-126.438 -107.88,83.482 57.758,50.531 -18.684,0.33 -86.374,-71.733 c -7.281,-5.603 -14.694,-8.326 -22.661,-8.326 -7.946,0 -16.123,2.806 -24.304,8.342 l -0.139,0.098 c -9.487,7.116 -152.583,124.623 -158.67,129.622 l -1.279,1.05 0,5.477 319.905,0 12.188,10.919 -333.515,0 c -5.252,0 -9.526,-4.271 -9.526,-9.52 l 0,-229.626 c 0,-5.25 4.274,-9.52 9.526,-9.52 l 365.053,0 c 5.253,0 9.526,4.27 9.526,9.52 z"
             inkscape:connector-curvature="0" /></g></g></g></g></svg>