<?xml version="1.0" encoding="UTF-8" standalone="no"?>
<!-- Created with Inkscape (http://www.inkscape.org/) -->
<svg id="svg7429" xmlns:rdf="http://www.w3.org/1999/02/22-rdf-syntax-ns#" xmlns="http://www.w3.org/2000/svg" height="69.88mm" width="182.36mm" version="1.1" xmlns:cc="http://creativecommons.org/ns#" xmlns:dc="http://purl.org/dc/elements/1.1/" viewBox="0 0 646.15997 247.60486">
 <metadata id="metadata7434">
  <rdf:RDF>
   <cc:Work rdf:about="">
    <dc:format>image/svg+xml</dc:format>
    <dc:type rdf:resource="http://purl.org/dc/dcmitype/StillImage"/>
    <dc:title/>
   </cc:Work>
  </rdf:RDF>
 </metadata>
 <g id="layer1" transform="translate(-11.286 -17.172)">
  <g id="g7448">
   <path id="path7462" fill="#cfcfcf" d="m143.29 263.48c-15.38-1.38-22.43-2.9-35.28-7.59-26.137-9.54-46.145-28.37-58.779-55.33-5.783-12.34-9.503-24.28-17.329-55.63l-7.1163-28.5-6.5-0.5-6.5-0.5-0.26144-39.709c-0.24398-37.057-0.1438-39.77 1.5-40.622 2.9753-1.5435 26.968-6.9772 42.261-9.5711 33.816-5.7355 39.52-6.0977 96-6.0977 45.218 0 54.373 0.25308 66 1.8246 29.795 4.0268 57.868 10.149 81.256 17.72 24.353 7.8831 43.249 7.5857 70.549-1.1104 26.443-8.4229 57.488-15.32 80.195-17.816 41.914-4.6072 120.21-3.4344 157.5 2.3594 9.35 1.4525 19.925 3.3453 23.5 4.2061 3.575 0.86083 11 1.8466 16.5 2.1906l10 0.6255 0.26133 40.884c0.18215 28.497-0.0703 41.283-0.83309 42.203-0.60288 0.72643-3.6302 1.4523-6.7406 1.6161l-5.6462 0.29743-5.6414 23.287c-3.1028 12.808-5.9611 23.608-6.352 24-0.39082 0.39198-5.102 0.86511-10.469 1.0514-12.472 0.43288-13.538-0.31209-11.547-8.0701 0.74373-2.8978 3.8857-15.708 6.9822-28.468 6.1037-25.152 7.9657-29.291 15.06-33.477l3.4672-2.0457-0.27077-19.624-0.27077-19.624-11-2.2044c-83.6-16.743-176.73-12.389-249.35 11.673-14.748 4.886-27.66 6.999-42.818 7.007-15.369 0.0081-24.767-1.4463-38.822-6.0083-60.19-19.534-130.42-25.56-203-17.419-14.917 1.6732-45.847 6.6409-52.496 8.4312l-4.004 1.0782v19.329 19.329l3.9915 2.6414c7.2616 4.8055 8.5175 7.8963 16.979 41.783 4.3042 17.238 9.2735 35.392 11.043 40.342 15.475 43.294 40.544 60.584 93.784 64.682 40.775 3.139 74.796-6.8256 99.438-29.126 14.263-12.907 28.601-37.07 39.197-66.056 10.766-29.452 11.287-30.542 17.147-35.898 9.4618-8.6476 20.849-10.501 32.028-5.212 11.322 5.3562 12.011 6.4627 23.424 37.61 14.378 39.238 30.876 63.283 53.709 78.276 20.217 13.275 43.051 19.215 73.893 19.221 12.773 0.003 13.15 0.0645 13.736 2.2528 0.78742 2.9382 0.80434 16.133 0.0233 18.168-0.87844 2.2892-38.453 2.2868-50.533-0.003-42.839-8.1216-75.795-33.231-97.669-74.415-5.9061-11.12-10.404-21.822-17.864-42.5-2.9762-8.25-6.0272-15.619-6.7799-16.375-2.0307-2.0403-6.6756-1.6846-8.5712 0.65636-0.90469 1.1172-3.3625 6.911-5.4618 12.875-15.834 44.983-29.022 68.383-49.34 87.543-19.512 18.4-46.647 31.414-70.674 33.895-15.518 1.6023-46.14 1.8253-61.5 0.4479z"/>
   <path id="path7460" fill="#b0b0b0" d="m144.76 263.39c-32.41-3.23-56.03-13.72-74.476-33.08-17.721-18.6-25.122-35.39-37.419-84.87l-7.206-29-6.937-1-6.936-1.01-0.262-38.614c-0.20418-30.139 0.01537-38.839 1-39.624 3.7478-2.9894 48.545-11.535 78.262-14.93 23.25-2.656 99.281-2.6668 120.5-0.01715 33.564 4.1912 63.577 10.632 88 18.885l12.5 4.2241 20-0.01062 20-0.01062 14.5-4.737c37.954-12.399 70.594-18.663 110.5-21.205 51.064-3.253 113.95 0.1852 149.71 8.1855 4.007 0.89631 12.46 1.906 18.785 2.2437l11.5 0.61404v41.5 41.5l-6.1678 0.5c-3.3923 0.275-6.4982 0.83088-6.902 1.2353-0.4038 0.40441-3.1635 10.736-6.1327 22.958-2.9692 12.223-5.8809 22.804-6.4705 23.515-1.2108 1.4589-18.423 1.8347-20.605 0.44987-0.99584-0.63195 0.23784-7.0251 5.5833-28.934 7.4749-30.636 8.944-34.147 16.205-38.731l3.9899-2.5187v-19.509c0-23.004 2.0622-20.266-18-23.896-72.603-13.136-149.72-11.716-213.5 3.9299-7.7 1.889-20.986 5.6598-29.524 8.3794-20.131 6.4124-27.854 7.4903-49.29 6.8794-16.79-0.473-17.48-0.579-29.97-4.616-47.11-15.218-89.68-21.534-144.71-21.47-37.759 0.04347-69.949 2.9917-103.5 9.4795-17.359 3.3566-15.5 0.56068-15.5 23.316v19.512l4.05 2.5566c7.1428 4.509 9.2531 9.2742 15.421 34.822 7.2831 30.166 11.666 45.443 15.958 55.62 15.904 37.711 41.993 53.74 92.699 56.955 37.555 2.3814 66.988-5.0531 90.679-22.905 20.752-15.637 34.927-38.166 49.616-78.855 8.0273-22.236 9.2762-24.762 14.631-29.6 9.175-8.2891 20.511-10.204 30.988-5.2354 11.034 5.2333 12.176 7.0972 24.011 39.166 16.382 44.394 35.345 68.889 64.557 83.393 16.976 8.4288 34.165 12.142 58.224 12.579 8.9838 0.16302 16.764 0.72636 17.29 1.2519 0.5255 0.5255 0.82511 5.1901 0.66581 10.366l-0.28965 9.4104-21-0.025c-16.522-0.0197-22.812-0.41548-29.5-1.8564-12.684-2.7328-23.446-6.3142-33.5-11.148-35.526-17.081-59.071-46.564-77.442-96.97-8.2893-22.745-9.3024-24.862-12.422-25.959-2.0662-0.72665-3.4548-0.5918-5.4539 0.52962-2.259 1.2672-3.8255 4.6529-9.9327 21.467-15.955 43.926-32.149 69.46-55.749 87.902-14.376 11.234-30.452 19.21-47.5 23.568-18.635 4.7634-46.929 6.089-73.526 3.4447z"/>
   <path id="path7458" fill="#8f8f8f" d="m158.29 264.28c-1.925-0.18384-8.352-0.8026-14.282-1.375-34.477-3.328-63.209-17.895-80.465-40.796-13.028-17.289-20.03-35.068-30.342-77.036-3.8635-15.725-7.5615-28.932-8.2179-29.349-0.65634-0.41728-3.4433-0.77248-6.1933-0.78932-2.75-0.0168-5.5679-0.39115-6.2621-0.83178-0.98784-0.62709-1.2051-9.1519-1-39.235l0.26206-38.434 12.5-3.2353c23.14-5.983 57.956-11.085 90.998-13.326 24.86-1.6866 73.391-0.68361 96 1.984 31.995 3.775 60.726 9.8847 89.186 18.966 22.446 7.1618 42.462 6.7433 67.937-1.4203 18.609-5.9633 33.596-9.8618 51.377-13.364 61.521-12.118 141.48-11.751 206 0.94403 9.2102 1.8121 18.184 2.9528 23.25 2.9553l8.25 0.004v40.955 40.955l-3.25 0.53879c-1.7875 0.29634-5.0425 0.65423-7.2333 0.79532l-3.9832 0.25652-5.0873 21c-2.798 11.55-5.4016 22.238-5.7858 23.75l-0.69853 2.75h-10.481c-8.5578 0-10.481-0.26991-10.481-1.471 0-0.80903 2.9574-13.611 6.572-28.449 7.1195-29.226 8.7241-32.962 16.002-37.256l3.4663-2.0452-0.26995-20.599-0.26995-20.599-3.5-0.7938c-9.0228-2.0464-38.915-6.8054-51.5-8.1992-73.82-8.1753-142.67-2.2913-203.95 17.429-18.388 5.9179-23.572 6.9212-39.553 7.6544-16.646 0.76373-28.609-0.81321-43.969-5.7961-33.056-10.724-67.833-17.177-107.53-19.953-18.783-1.3137-66.012-0.72256-83.5 1.0451-25.152 2.5424-54.825 7.0717-66.25 10.112l-3.75 0.99803v20.294 20.294l3.7127 2.4175c7.5082 4.889 8.8989 8.2192 16.727 40.054 8.4256 34.264 11.085 42.788 17.582 56.364 13.853 28.945 35.165 43.334 73.478 49.611 12.444 2.0385 46.889 1.7807 57.874-0.43311 32.579-6.5657 55.337-20.927 73.56-46.419 9.8869-13.831 16.764-28.386 27.291-57.758 6.4228-17.921 8.814-22.576 13.482-26.245 11.879-9.3361 24.454-9.5904 36.519-0.73826 5.7568 4.2238 6.7411 6.1293 15.23 29.483 19.413 53.41 40.084 78.906 75.432 93.038 14.868 5.944 26.497 8.028 48.397 8.673l18.784 0.55316-0.28352 10.118-0.28353 10.118-19.5-0.10713c-15.754-0.0865-21.434-0.51521-29.565-2.2312-29.767-6.2819-51.382-17.943-70.842-38.218-16.756-17.457-29.259-39.489-41.394-72.944-7.6448-21.075-7.9218-21.642-11.226-23.011-2.2147-0.91734-3.3629-0.83853-5.7473 0.39451-2.5427 1.3149-3.6042 3.2698-7.2375 13.329-16.231 44.935-26.948 64.887-44.959 83.694-17.655 18.436-36.164 29.329-61.508 36.201-14.928 4.0474-43.195 6.2978-59.521 4.7387z"/>
   <path id="path7456" fill="#717171" d="m152.88 263.91c-47.127-4.2307-78.117-21.451-96.994-53.899-8.6363-14.845-14.419-32.12-23.625-70.578-2.8964-12.1-5.7053-22.562-6.2419-23.25-0.53667-0.6875-2.6644-1.25-4.7283-1.25s-5.1588-0.28125-6.8776-0.625l-3.125-0.625v-38.328-38.328l3.75-1.0465c19.413-5.4174 49.153-10.85 73.75-13.471 76.088-8.1094 149.73-1.6083 211 18.628l13 4.2934 19-0.07822c13.955-0.05745 20.328-0.48193 24-1.5987 2.75-0.83624 11.525-3.5675 19.5-6.0695 44.201-13.867 88.695-20.124 143-20.11 40.819 0.01067 71.975 2.8691 108 9.9086 7.7231 1.5092 16.035 2.4441 21.75 2.4465l9.25 0.0039v40.863 40.863l-6.5922 0.52916c-3.6257 0.29104-7.048 0.98488-7.605 1.5419-0.557 0.55699-3.553 11.293-6.6578 23.858l-5.645 22.845-9.4104 0.28965c-5.1757 0.1593-9.8182-0.11821-10.317-0.61669-0.54178-0.54178-0.30694-3.0717 0.58386-6.2896 0.81961-2.9608 3.8085-15.145 6.642-27.076 5.6125-23.632 8.2402-29.524 14.499-32.508l3.1914-1.5219 0.64041-19.845c0.35223-10.915 0.39678-20.48 0.099-21.256-1.2582-3.2787-45.848-10.308-80.861-12.747-21.817-1.5199-74.172-0.68146-92.568 1.4825-31.795 3.7401-62.861 10.315-87.959 18.616-15.252 5.0445-18.508 5.743-32.462 6.9663-17.495 1.5337-32.597-0.06514-47.902-5.0709-24.658-8.0651-54.9-14.597-85.678-18.504-19.657-2.4957-79.422-3.0738-103.5-1.001-30.714 2.644-70.511 9.0776-73.084 11.815-0.8787 0.93465-1.0553 6.5569-0.671 21.363l0.52156 20.094 3.3824 1.8216c1.8603 1.0019 4.6527 3.7393 6.2052 6.0831 2.9501 4.4538 3.9471 7.8457 12.172 41.407 9.991 40.769 16.971 56.768 31.353 71.868 12.033 12.634 26.911 20.195 49.121 24.965 11 2.3623 14.041 2.5808 36.5 2.622 20.297 0.0373 25.951-0.27388 32.96-1.8136 47.072-10.342 74.258-37.29 94.97-94.141 11.135-30.563 11.728-31.731 18.898-37.199 6.3311-4.8289 14.008-6.8107 20.968-5.4128 6.6274 1.331 12.849 4.8054 16.932 9.4548 3.0608 3.4861 4.3701 6.5422 13.348 31.157 10.516 28.833 21.961 48.562 36.89 63.593 9.4495 9.5142 16.552 14.65 28.534 20.631 17.223 8.5979 29.874 11.372 55.5 12.169l19.5 0.6068 0.28973 9.4164c0.21104 6.8592-0.0605 9.6386-1 10.235-1.8503 1.1739-20.577 1.0359-33.366-0.24598-13.003-1.3032-30.025-5.4314-41.66-10.103-24.148-9.6957-44.998-27.165-60.478-50.671-7.5871-11.521-17.855-33.309-24.803-52.632-7.9224-22.032-8.8194-23.5-14.361-23.5-4.3905 0-6.8481 4.1325-13.678 23-8.5237 23.547-13.94 35.748-21.486 48.403-21.814 36.582-52.653 58.103-93.958 65.569-13.363 2.4155-37.538 3.3407-52.409 2.0057z"/>
   <path id="path7454" fill="#4d4d4d" d="m158.29 263.9c-46.59-3.09-78.562-18.59-97.861-47.44-10.795-16.14-16.994-33.01-26.725-72.74-3.6767-15.009-7.0972-27.739-7.6011-28.289-0.50388-0.55-3.7065-1.225-7.1169-1.5l-6.2008-0.5-0.62746-10.5c-0.3451-5.775-0.6826-22.926-0.75-38.114l-0.12254-27.614 14.75-3.5938c41.594-10.129 82.805-14.199 135.68-13.393 41.082 0.62676 63.494 2.9819 97.333 10.228 12.246 2.6223 40.897 10.611 46.596 12.992 6.0918 2.5453 23.679 3.8035 35.976 2.5737 12.595-1.2597 13.229-1.4036 31.175-7.0844 45.88-14.523 91.338-21.151 145-21.143 40.536 0.0058 74.25 3.2452 111.83 10.745 8.8128 1.7589 15.152 2.4581 20.252 2.2339l7.4246-0.32628-0.002 40.75c-0.001 22.412-0.33983 40.697-0.75233 40.632-0.4125-0.0651-3.5467-0.0651-6.9648 0-5.1322 0.0978-6.4024 0.46889-7.2916 2.1303-0.5922 1.1065-3.335 11.555-6.0951 23.22-2.7601 11.664-5.4965 21.784-6.0809 22.488-1.608 1.9375-17.693 1.7696-18.446-0.1926-0.73891-1.9247 11.358-51.977 13.661-56.527 1.8663-3.6865 4.6436-6.4983 9.2367-9.3517l2.7702-1.7209-0.27018-20.71-0.27018-20.71-3.6727-1.2025c-2.02-0.66138-11.92-2.5643-22-4.2287-84.35-13.925-165.22-9.293-235.86 13.511-17.107 5.5219-28.309 7.4032-43.98 7.3858-15.518-0.01719-22.767-1.2083-39.392-6.4725-68.37-21.648-150.63-26.264-231.12-12.969-8.2556 1.3634-18.156 3.2642-22 4.224l-6.9899 1.7451-0.27021 20.725-0.27021 20.725 3.8956 2.4592c4.3505 2.7463 7.2872 6.1069 9.0448 10.35 0.64712 1.5623 4.6931 16.993 8.9911 34.291 8.0444 32.376 13.127 47.477 19.732 58.628 11.865 20.031 27.751 32.156 50.877 38.83 14.924 4.3068 27.12 5.7786 48.5 5.8533 21.477 0.075 34.829-1.8278 49.301-7.0261 37.817-13.583 60.537-40.559 80.155-95.165 7.6408-21.269 9.5758-25.368 13.885-29.416 10.174-9.5579 23.857-10.216 36.176-1.7405 5.4634 3.7589 6.9067 6.4926 14.607 27.667 3.311 9.1047 7.7713 20.592 9.9117 25.527 18.98 43.761 48.007 68.235 90.59 76.381 4.8807 0.93372 16.524 1.9712 25.874 2.3055l17 0.6078 0.30091 6.9791c0.53012 12.295 1.635 11.521-16.442 11.521-41.142 0-73.618-11.887-98.979-36.228-18.711-17.958-31.463-39.334-44.309-74.272-8.6878-23.629-9.0749-24.45-12.308-26.122-2.4442-1.264-3.4892-1.3197-5.9134-0.31563-3.7039 1.5342-4.6993 3.4957-12.382 24.398-10.81 29.411-15.646 39.5-26.772 55.848-28.902 42.468-75.133 62.599-134.7 58.654z"/>
   <path id="path7452" fill="#2f2f2f" d="m153.27 263.61c-0.26756-0.25592-5.6615-1.2062-11.986-2.1118-51.836-7.4216-80.505-31.127-96.828-80.062-2.2015-6.6-6.9815-24.133-10.622-38.963-3.6407-14.829-7.1662-27.31-7.8344-27.735-0.66822-0.42463-3.5224-0.77894-6.3425-0.78736-2.892-0.009-5.5575-0.5603-6.1137-1.2653-0.58065-0.73601-1.2472-16.498-1.6209-38.333-0.50167-29.308-0.37299-37.089 0.6137-37.109 0.68666-0.01421 6.7189-1.415 13.405-3.1128s20.411-4.4504 30.5-6.1167c86.389-14.269 171.65-9.3277 243.84 14.131 11.295 3.6703 13.754 4.1097 25.5 4.5565 16.3 0.62003 27.294-0.81652 40.608-5.3059 30.376-10.243 61.88-16.765 101.89-21.094 19.509-2.1106 68.435-2.9756 83.5-1.4763 6.05 0.60209 16.175 1.5803 22.5 2.1737 16.375 1.5365 38.532 4.6822 52.5 7.4537 6.6 1.3096 16.198 2.4639 21.33 2.5653l9.33 0.18424-0.70755 39.117c-0.38915 21.514-0.87988 39.419-1.0905 39.788-0.21062 0.36934-3.3095 0.98494-6.8863 1.368-3.5769 0.38305-6.7339 1.0694-7.0156 1.5253-0.28173 0.45586-2.7685 10.415-5.5262 22.132s-5.2512 22.091-5.5412 23.053c-0.45369 1.5057-1.844 1.75-9.9599 1.75-5.1879 0-9.4326-0.19192-9.4326-0.42649 0-2.1833 13.291-54.229 14.382-56.318 1.6137-3.0896 6.0459-7.4615 9.2085-9.0832 1.983-1.0169 2.1229-2.1113 2.7154-21.253 0.36997-11.951 0.24251-20.895-0.31258-21.932-1.427-2.6663-29.716-7.8238-63.994-11.667-19.64-2.202-84.657-2.5303-104-0.5251-32.941 3.4149-63.802 9.6948-91.976 18.716-32.59 10.451-56.07 10.958-84.52 1.841-42.67-13.669-79.07-19.25-130.83-20.06-43.45-0.679-73.535 1.577-109.67 8.225-16.469 3.029-20.673 4.171-21.248 5.768-0.24328 0.67676-0.23021 10.361 0.02904 21.521l0.47137 20.291 2.6215 1.3699c3.7687 1.9695 7.775 6.4732 9.5605 10.747 0.84982 2.0344 4.4355 15.534 7.9681 30 9.6509 39.519 14.38 52.893 23.919 67.638 17.566 27.155 48.933 40.163 96.847 40.163 38.287 0 65.789-9.7208 88.479-31.274 17.384-16.513 28.405-35.794 41.856-73.226 6.9533-19.35 9.4182-24.418 13.577-27.918 10.798-9.0856 24.2-9.5862 35.052-1.3092 5.7247 4.3664 6.6847 6.2198 15.198 29.341 12.292 33.387 22.432 51.763 37.054 67.156 9.5964 10.102 18.186 16.38 31.113 22.739 18.375 9.0385 34.715 12.48 59.288 12.486l15.288 0.004-0.28752 9.25-0.28753 9.25-10.5 0.31567c-32.062 0.96389-63.441-7.2555-86.117-22.557-29.242-19.732-46.307-45.211-64.472-96.258-5.1368-14.436-8.216-19-12.818-19-5.1604 0-8.0831 4.4378-14.16 21.5-14.433 40.527-26.246 61.433-45.479 80.485-18.4 18.228-41.674 29.756-71.954 35.641-7.967 1.5485-48.788 3.2196-50.014 2.0474z"/>
   <path id="path7450" fill="#010101" d="m154.79 262.93c1.5129-0.6501 0.86727-0.87655-2.6506-0.92971-8.5196-0.12876-28.214-4.0718-39.457-7.8995-33.673-11.465-54.881-34.408-67.789-73.335-1.9448-5.8651-6.4975-22.748-10.117-37.517-3.6196-14.769-6.9932-27.52-7.497-28.336-0.58808-0.95153-3.1662-1.6611-7.2027-1.9825l-6.284-0.5-0.262-37.134-0.262-37.137 7.762-2.092c18.248-4.9185 45.719-9.6003 75.262-12.827 13.22-1.4438 24.452-1.7914 56.5-1.7481 35.046 0.04734 42.282 0.33124 58.425 2.2924 32.337 3.9284 56.73 9.0741 86.446 18.235 13.13 4.048 17.706 4.9999 26.5 5.5124 14.77 0.86086 27.574-0.81787 42.58-5.583 25.968-8.246 42.41-12.241 67.549-16.415 17.436-2.8946 41.535-5.5507 51.722-5.7005 4.915-0.07228 6.0912-0.31978 4.2784-0.90032-1.375-0.44035 11.225-0.79225 28-0.782s29.15 0.324 27.5 0.69722c-1.891 0.42774 1.9903 0.93806 10.5 1.3805 21.271 1.106 50.602 4.8711 72.388 9.2919 6.5381 1.3268 15.206 2.4123 19.262 2.4123h7.3741l-0.2616 39.25-0.26161 39.25-6.3217 0.29958c-6.066 0.28746-6.3744 0.42902-7.6248 3.5-0.71666 1.7602-3.4664 12.538-6.1106 23.95l-4.8076 20.75h-8.8177c-4.8497 0-8.8177-0.18693-8.8177-0.41541 0-0.22847 2.9535-12.556 6.5633-27.394 6.1111-25.12 6.807-27.263 10.1-31.111 1.9454-2.2727 4.8419-4.807 6.4367-5.6317l2.8996-1.4995v-21.439c0-19.675-0.1491-21.519-1.8122-22.409-2.5379-1.3582-25.83-5.65-43.688-8.0498-58.645-7.881-118.49-6.3458-172 4.4124-16.136 3.2442-44.775 10.954-52.174 14.045-10.353 4.3258-36.642 6.6239-52.855 4.6204-4.9657-0.61363-14.641-2.9309-21.5-5.1496-26.42-8.5456-58.008-15.119-88.972-18.514-20.039-2.1976-66.355-3.0197-87.5-1.5531-29.878 2.075-62.698 6.523-80.014 10.847l-6.9899 1.7451v21.97c0 21.965 0.00062 21.971 2.3138 23.124 3.4646 1.7273 7.9023 6.2874 9.5998 9.8647 0.82822 1.7453 4.4557 15.294 8.0611 30.107 7.6221 31.317 12.058 45.433 18.208 57.934 16.646 33.839 45.511 49.174 96.317 51.17 25.115 0.98707 46.047-2.3932 64.75-10.457 12.716-5.4821 22.32-12.154 33.323-23.149 15.609-15.597 26.302-33.762 36.831-62.565 12.883-35.244 13.319-35.965 24.921-41.277 8.9012-4.0751 19.243-2.0863 28.158 5.415 3.7315 3.1399 4.6308 5.0773 12.468 26.862 7.3461 20.42 18.575 43.542 26.615 54.802 3.4566 4.8413 10.253 12.579 15.103 17.194 22.579 21.487 50.576 31.503 88.056 31.503h12.776v8.6222 8.6222l-18.25-0.5048c-20.792-0.57512-31.565-2.2648-46.701-7.3248-37.591-12.567-64.393-38.434-82.964-80.069-2.6608-5.9654-7.6431-18.577-11.072-28.026-6.493-17.893-8.3301-20.834-13.684-21.905-2.4764-0.49528-3.6927-0.0604-6.2501 2.2346-2.5526 2.2906-4.5057 6.4782-9.9575 21.35-11.495 31.357-18.08 44.885-29.707 61.034-20.294 28.186-49.719 46.301-85.282 52.502-4.6169 0.80513-10.023 1.4708-12.013 1.4792-2.7047 0.0114-3.2401 0.26021-2.119 0.98469 0.995 0.64302-5.065 0.95087-18 0.9144-11.809-0.0333-18.711-0.39394-17.5-0.9144zm501.91-215c0-9.625 0.14998-13.562 0.3333-8.75 0.18331 4.8125 0.18331 12.688 0 17.5-0.18332 4.8125-0.3333 0.875-0.3333-8.75zm-645.02 1.5c0.0018-7.15 0.16103-9.9438 0.35396-6.2084s0.1915 9.5854-0.0032 13c-0.19468 3.4146-0.35253 0.35841-0.35078-6.7916z"/>
  </g>
 </g>
</svg>
