<?xml version="1.0" encoding="utf-8"?>
<!-- Generator: Adobe Illustrator 20.1.0, SVG Export Plug-In . SVG Version: 6.00 Build 0)  -->
<!DOCTYPE svg PUBLIC "-//W3C//DTD SVG 1.1//EN" "http://www.w3.org/Graphics/SVG/1.1/DTD/svg11.dtd">
<svg version="1.1" id="Layer_1" xmlns="http://www.w3.org/2000/svg" xmlns:xlink="http://www.w3.org/1999/xlink" x="0px" y="0px"
	 viewBox="0 0 356 290" style="enable-background:new 0 0 356 290;" xml:space="preserve">
<style type="text/css">
	.st0{fill:url(#SVGID_1_);}
</style>
<linearGradient id="SVGID_1_" gradientUnits="userSpaceOnUse" x1="3.8164" y1="144.95" x2="352.1337" y2="144.95">
	<stop  offset="0" style="stop-color:#26B0BF"/>
	<stop  offset="1" style="stop-color:#36ECE3"/>
</linearGradient>
<path class="st0" d="M328.7,26.2c-15.1-15.1-35.2-23.5-56.7-23.5c-21.4,0-41.5,8.3-56.7,23.5l-37.3,37.3l-37.3-37.3
	C125.5,11.1,105.4,2.8,84,2.8s-41.5,8.3-56.7,23.5C-4,57.4-4,108.4,27.2,139.6l146.1,146.1c1,1,2.3,1.5,3.5,1.5c0.4,0,0.7,0,1.1-0.1
	c0.3,0.1,0.7,0.1,1.1,0.1c1.4,0,2.7-0.5,3.5-1.5l2.5-2.5l40.5-40.3l103.2-103.2c15.1-15.1,23.5-35.2,23.5-56.7
	C352.1,61.5,343.8,41.4,328.7,26.2z"/>
</svg>
