<?xml version="1.0" encoding="UTF-8" standalone="no"?>
<!-- Generator: Adobe Illustrator 19.2.0, SVG Export Plug-In . SVG Version: 6.00 Build 0)  -->

<svg
   xmlns:dc="http://purl.org/dc/elements/1.1/"
   xmlns:cc="http://creativecommons.org/ns#"
   xmlns:rdf="http://www.w3.org/1999/02/22-rdf-syntax-ns#"
   xmlns:svg="http://www.w3.org/2000/svg"
   xmlns="http://www.w3.org/2000/svg"
   xmlns:sodipodi="http://sodipodi.sourceforge.net/DTD/sodipodi-0.dtd"
   xmlns:inkscape="http://www.inkscape.org/namespaces/inkscape"
   version="1.1"
   id="Layer_1"
   x="0px"
   y="0px"
   viewBox="0 0 150 150"
   xml:space="preserve"
   inkscape:version="0.91 r13725"
   sodipodi:docname="iconCollapse.svg"
   width="150"
   height="150"><metadata
     id="metadata13"><rdf:RDF><cc:Work
         rdf:about=""><dc:format>image/svg+xml</dc:format><dc:type
           rdf:resource="http://purl.org/dc/dcmitype/StillImage" /><dc:title></dc:title></cc:Work></rdf:RDF></metadata><defs
     id="defs11" /><sodipodi:namedview
     pagecolor="#ffffff"
     bordercolor="#666666"
     borderopacity="1"
     objecttolerance="10"
     gridtolerance="10"
     guidetolerance="10"
     inkscape:pageopacity="0"
     inkscape:pageshadow="2"
     inkscape:window-width="1409"
     inkscape:window-height="779"
     id="namedview9"
     showgrid="false"
     inkscape:zoom="1.1805903"
     inkscape:cx="13.594286"
     inkscape:cy="99.949997"
     inkscape:window-x="2195"
     inkscape:window-y="128"
     inkscape:window-maximized="0"
     inkscape:current-layer="Layer_1" /><path
     id="polygon7"
     d="m 147.87848,114.55327 0,-6.01407 -26.93801,0 0,26.93801 6.01406,0 0,-16.72662 18.85662,18.85661 4.19732,-4.25996 -18.85661,-18.79397 z M 23.900966,31.233353 5.1069997,12.376741 0.84703359,16.636707 19.703646,35.430672 l -16.7266289,0 0,6.01407 26.9380219,0 0,-26.938019 -6.014073,0 z m 83.633144,25.371854 0,44.729643 -64.400656,0 0,-52.873694 56.319255,0 4.949071,-5.45025 -66.718576,0 0,63.711554 75.238506,0 0,-54.189278 z"
     inkscape:connector-curvature="0" /></svg>