<?xml version="1.0" encoding="UTF-8" standalone="no"?>
<!-- Generator: Adobe Illustrator 19.2.0, SVG Export Plug-In . SVG Version: 6.00 Build 0)  -->

<svg
   xmlns:dc="http://purl.org/dc/elements/1.1/"
   xmlns:cc="http://creativecommons.org/ns#"
   xmlns:rdf="http://www.w3.org/1999/02/22-rdf-syntax-ns#"
   xmlns:svg="http://www.w3.org/2000/svg"
   xmlns="http://www.w3.org/2000/svg"
   xmlns:sodipodi="http://sodipodi.sourceforge.net/DTD/sodipodi-0.dtd"
   xmlns:inkscape="http://www.inkscape.org/namespaces/inkscape"
   version="1.1"
   id="Layer_1"
   x="0px"
   y="0px"
   viewBox="0 0 350.00001 350"
   xml:space="preserve"
   inkscape:version="0.91 r13725"
   sodipodi:docname="iconShare.svg"
   width="350"
   height="350"><metadata
     id="metadata9"><rdf:RDF><cc:Work
         rdf:about=""><dc:format>image/svg+xml</dc:format><dc:type
           rdf:resource="http://purl.org/dc/dcmitype/StillImage" /><dc:title></dc:title></cc:Work></rdf:RDF></metadata><defs
     id="defs7" /><sodipodi:namedview
     pagecolor="#ffffff"
     bordercolor="#666666"
     borderopacity="1"
     objecttolerance="10"
     gridtolerance="10"
     guidetolerance="10"
     inkscape:pageopacity="0"
     inkscape:pageshadow="2"
     inkscape:window-width="1301"
     inkscape:window-height="765"
     id="namedview5"
     showgrid="false"
     inkscape:zoom="0.9508461"
     inkscape:cx="2.0139816"
     inkscape:cy="124.1"
     inkscape:window-x="2195"
     inkscape:window-y="154"
     inkscape:window-maximized="0"
     inkscape:current-layer="Layer_1" /><path
     d="M 351.3828,140.47712 174.31501,11.354238 173.65823,95.027971 C 109.9506,98.443221 67.785347,113.81186 41.251449,143.36695 -2.7527882,192.36271 1.0565339,253.04915 3.2895847,270.38813 l 6.9618643,66.99153 25.877119,-61.73729 c 17.207627,-40.98305 54.775423,-89.84746 135.822032,-89.84746 0.65678,0 1.31356,0 1.97034,0 l 0,86.69492 177.46186,-132.01271 z m -179.4322,33.49576 c -41.77118,0 -76.843219,12.34746 -104.427964,36.64831 C 49.658229,226.3839 35.471788,246.74407 25.09467,271.17627 L 17.081958,290.22288 14.980263,269.6 14.848907,268.94322 C 12.747212,252.78644 9.2006016,196.5661 49.920941,151.2483 74.878568,123.40085 116.12433,109.21441 179.7006,106.58729 l 5.64831,-0.26271 0.52542,-71.851698 145.54237,106.135588 -145.67373,108.36865 0,-74.61017 -5.6483,-0.26271 c -2.49576,-0.13136 -5.25424,-0.13136 -8.14407,-0.13136 z"
     id="path3"
     inkscape:connector-curvature="0" /></svg>