<?xml version="1.0" encoding="UTF-8" standalone="no"?>
<!-- Created with Inkscape (http://www.inkscape.org/) -->

<svg
   xmlns:dc="http://purl.org/dc/elements/1.1/"
   xmlns:cc="http://creativecommons.org/ns#"
   xmlns:rdf="http://www.w3.org/1999/02/22-rdf-syntax-ns#"
   xmlns:svg="http://www.w3.org/2000/svg"
   xmlns="http://www.w3.org/2000/svg"
   xmlns:sodipodi="http://sodipodi.sourceforge.net/DTD/sodipodi-0.dtd"
   xmlns:inkscape="http://www.inkscape.org/namespaces/inkscape"
   width="206.52927mm"
   height="105.47711mm"
   viewBox="0 0 731.79661 373.7378"
   id="svg7408"
   version="1.1"
   inkscape:version="0.91 r13725"
   sodipodi:docname="iconCategoryGames.svg">
  <defs
     id="defs7410" />
  <sodipodi:namedview
     id="base"
     pagecolor="#ffffff"
     bordercolor="#666666"
     borderopacity="1.0"
     inkscape:pageopacity="0.0"
     inkscape:pageshadow="2"
     inkscape:zoom="0.35"
     inkscape:cx="374.28862"
     inkscape:cy="-120.92338"
     inkscape:document-units="px"
     inkscape:current-layer="layer1"
     showgrid="false"
     fit-margin-top="0"
     fit-margin-left="0"
     fit-margin-right="0"
     fit-margin-bottom="0"
     inkscape:window-width="1920"
     inkscape:window-height="1018"
     inkscape:window-x="1912"
     inkscape:window-y="-8"
     inkscape:window-maximized="1" />
  <metadata
     id="metadata7413">
    <rdf:RDF>
      <cc:Work
         rdf:about="">
        <dc:format>image/svg+xml</dc:format>
        <dc:type
           rdf:resource="http://purl.org/dc/dcmitype/StillImage" />
        <dc:title></dc:title>
      </cc:Work>
    </rdf:RDF>
  </metadata>
  <g
     inkscape:label="Layer 1"
     inkscape:groupmode="layer"
     id="layer1"
     transform="translate(-0.71137959,-37.701034)">
    <path
       style="fill:#000000"
       d="M 172.26607,410.91949 C 83.681831,404.4653 12.729661,335.96439 1.6312175,246.17972 c -1.22645054,-9.92178 -1.22645054,-33.81955 0,-43.74134 C 11.000021,126.64623 64.883283,63.998179 137.47291,44.500327 159.47908,38.589389 172.8365,37.719064 241.70316,37.709034 l 54.87257,-0.008 -0.25559,11.150966 -0.25559,11.150967 -65.54037,0.489514 C 166.75009,60.968811 164.7153,61.038084 155.02051,63.06292 110.55211,72.350515 73.325886,97.740771 48.73326,135.55646 5.433617,202.13764 16.987663,291.541 75.957645,346.2144 c 11.575146,10.73178 22.635256,18.33511 37.140035,25.53212 15.34682,7.61481 25.17962,11.10531 40.41515,14.34678 10.41823,2.21655 13.26709,2.44029 31.04206,2.43792 21.91653,-0.003 29.89331,-1.20616 48.24499,-7.27742 44.12729,-14.59857 83.50395,-50.8067 103.36285,-95.04551 l 4.69922,-10.46825 25.05506,-0.24178 25.05506,-0.24178 5.57002,11.16518 c 26.64448,53.40916 63.64812,85.75432 112.52866,98.36212 14.49076,3.73763 22.53982,4.67145 39.59731,4.59396 11.94263,-0.0543 18.59068,-0.5508 26.55996,-1.98377 67.93467,-12.21545 121.19266,-66.31328 133.22048,-135.32129 0.78536,-4.5059 1.66658,-13.92733 1.95825,-20.93651 2.5929,-62.30873 -30.75689,-121.05424 -86.18521,-151.814878 -12.48778,-6.93025 -32.81941,-13.906242 -50.06556,-17.17801 -4.16961,-0.791017 -25.27073,-1.272764 -71.45721,-1.631395 l -65.54037,-0.508911 -0.25559,-11.150967 -0.25559,-11.150966 55.32771,0.009 c 30.43024,0.005 61.2673,0.429964 68.52681,0.944475 25.0943,1.778536 46.16621,7.40701 67.81608,18.114214 15.62007,7.725096 26.51784,14.91186 39.40104,25.983839 34.50188,29.651359 57.52103,72.267339 63.44492,117.457299 1.59818,12.19165 1.81105,35.7039 0.42443,46.88013 -7.34459,59.19743 -42.05666,111.46244 -93.63623,140.98549 -17.52046,10.02833 -38.78553,17.56549 -61.06515,21.64384 -12.65695,2.3169 -45.14608,2.28631 -58.25811,-0.0548 -32.92425,-5.87862 -62.51254,-19.72282 -88.29869,-41.3145 -16.92573,-14.17254 -33.51944,-35.25321 -47.63169,-60.5114 l -5.72786,-10.2518 -9.95849,-0.22969 c -5.47716,-0.12633 -10.41882,0.0785 -10.98144,0.45514 -0.56263,0.37666 -2.67051,3.96185 -4.68418,7.9671 -14.4431,28.72774 -43.50515,60.13504 -71.9953,77.8052 -32.9162,20.41527 -70.47384,30.00238 -107.085,27.33491 z m 371.32654,-93.81342 c -6.41005,-2.46613 -11.64967,-7.25227 -14.66772,-13.39827 -2.23206,-4.54539 -2.55781,-6.2567 -2.55127,-13.40323 0.009,-9.84869 2.12371,-15.44817 8.01038,-21.21049 6.03171,-5.90428 11.38354,-7.90936 21.11118,-7.90936 9.43934,0 14.17744,1.68612 20.31203,7.22836 9.03701,8.1644 11.55796,24.38313 5.60401,36.05384 -2.39112,4.687 -10.11735,11.34413 -15.16008,13.06236 -5.94705,2.02638 -16.81929,1.82329 -22.65853,-0.42321 z M 167.78557,282.16665 c -1.96362,-0.72228 -4.83101,-2.57289 -6.37198,-4.11248 l -2.80177,-2.79925 -0.45514,-17.9631 -0.45514,-17.9631 -16.56468,-0.45514 -16.56468,-0.45514 -3.27084,-3.17273 c -2.08602,-2.02344 -3.75513,-4.83859 -4.60777,-7.77157 -1.17764,-4.05091 -1.17622,-5.14003 0.0119,-9.14092 0.84212,-2.83573 2.57304,-5.72965 4.60748,-7.70324 l 3.25863,-3.16116 16.56498,-0.45514 16.56496,-0.45515 0.45514,-16.08724 c 0.4412,-15.59437 0.52486,-16.16281 2.73085,-18.55332 2.82049,-3.05641 8.66356,-5.82705 12.28882,-5.82705 3.62527,0 9.46834,2.77064 12.28882,5.82705 2.20599,2.39051 2.28965,2.95895 2.73085,18.55332 l 0.45514,16.08724 17.45984,0.45515 c 19.86802,0.51791 20.88242,0.85595 24.64075,8.21114 2.63451,5.15586 2.62239,10.44278 -0.0354,15.46883 -3.89466,7.36491 -4.79269,7.66345 -24.60532,8.17993 l -17.45986,0.45514 -0.45514,17.90745 c -0.44612,17.55246 -0.50026,17.95567 -2.73085,20.34028 -4.67765,5.00063 -11.6455,6.80971 -17.6796,4.5902 z M 482.5035,254.53829 c -9.74716,-3.49188 -16.23968,-10.03199 -18.57737,-18.71354 -1.57119,-5.83491 -1.12266,-15.20236 0.99949,-20.8743 2.45143,-6.55202 9.70112,-13.44234 16.59857,-15.77575 14.88871,-5.03686 31.36505,1.45767 37.20725,14.6661 2.81546,6.36538 3.33487,16.04233 1.22167,22.76072 -2.13416,6.78507 -8.63257,14.0198 -15.08694,16.79639 -6.60549,2.8416 -16.24218,3.33303 -22.36267,1.14038 z m 126.52933,0 c -9.74716,-3.49188 -16.23968,-10.03199 -18.57738,-18.71354 -1.57118,-5.83491 -1.12265,-15.20236 0.9995,-20.8743 2.45142,-6.55202 9.70112,-13.44234 16.59857,-15.77575 14.88871,-5.03686 31.36505,1.45767 37.20725,14.6661 2.81546,6.36538 3.33486,16.04233 1.22167,22.76072 -2.13417,6.78507 -8.63258,14.0198 -15.08694,16.79639 -6.60549,2.8416 -16.24219,3.33303 -22.36267,1.14038 z m -65.44022,-63.96156 c -6.41005,-2.46613 -11.64967,-7.25227 -14.66772,-13.39826 -2.23206,-4.54539 -2.55781,-6.2567 -2.55127,-13.40324 0.009,-9.84868 2.12371,-15.44816 8.01038,-21.21048 6.03171,-5.90429 11.38354,-7.90937 21.11118,-7.90937 9.43934,0 14.17744,1.68613 20.31203,7.22837 9.03701,8.1644 11.55796,24.38313 5.60401,36.05384 -2.39112,4.68699 -10.11735,11.34413 -15.16008,13.06236 -5.94705,2.02637 -16.81929,1.82329 -22.65853,-0.42322 z"
       id="path7427"
       inkscape:connector-curvature="0" />
  </g>
</svg>
