<?xml version="1.0" standalone="no"?>
<!DOCTYPE svg PUBLIC "-//W3C//DTD SVG 1.1//EN" "http://www.w3.org/Graphics/SVG/1.1/DTD/svg11.dtd" >
<svg xmlns="http://www.w3.org/2000/svg" xmlns:xlink="http://www.w3.org/1999/xlink" version="1.1">
<metadata>
Created by FontForge 20160405 at Fri Dec  2 09:45:57 2016
 By www-data
</metadata>
<defs>
<font id="cizo" horiz-adv-x="2048" >
  <font-face 
    font-family="cizo"
    font-weight="400"
    font-stretch="normal"
    units-per-em="2048"
    panose-1="2 0 5 3 0 0 0 0 0 0"
    ascent="1741"
    descent="-307"
    bbox="-263.902 -319 2537 1743"
    underline-thickness="0"
    underline-position="0"
    unicode-range="U+E800-E820"
  />
<missing-glyph horiz-adv-x="745" 
d="M135 68h408v1228h-408v-1228zM68 0v1364h542v-1364h-542z" />
    <glyph glyph-name=".notdef" horiz-adv-x="745" 
d="M135 68h408v1228h-408v-1228zM68 0v1364h542v-1364h-542z" />
    <glyph glyph-name=".null" horiz-adv-x="0" 
 />
    <glyph glyph-name="nonmarkingreturn" horiz-adv-x="681" 
 />
    <glyph glyph-name="favorites-filled" unicode="&#xe800;" 
d="M1042 -61h-12q-12 0 -18 8l-813 813q-131 131 -131 315q0 183 131 315t315 132t315 -131l207 -209l209 209q131 131 313 131t315 -130q132 -130 132 -316t-129 -316l-813 -813q-8 -8 -21 -8z" />
    <glyph glyph-name="google" unicode="&#xe801;" 
d="M1690 786h174v-139h-174v-176h-142v176h-174v139h174v177h142v-177zM1282 705q0 -242 -148 -395q-148 -152 -385 -152t-401 164t-164 395t164 395t389 164t381 -146l-157 -157q-91 86 -223 86q-132 1 -230 -101t-98 -241t98 -239t228 -101q130 0 213 62t100 165h-306v217
h529q10 -61 10 -116z" />
    <glyph glyph-name="reddit" unicode="&#xe802;" horiz-adv-x="2631" 
d="M2404 422q0 -160 -92 -293t-244 -233t-352 -152t-404 -51q-204 0 -405 51q-201 52 -354 152t-244 233q-90 133 -90 293q0 41 8 82q-61 37 -96 100t-35 135q0 115 82 197t190 82t187 -70q303 195 729 203l166 522q10 33 41 33t442 -104q65 142 222 140q83 -1 151 -69
t66 -162q-2 -93 -66 -161t-160 -68t-164 68t-67 159l-387 93l-144 -451q399 -18 689 -205q83 72 193 72t190 -82t81 -197q-1 -73 -39 -139t-100 -102q6 -41 6 -76zM2277 1511q0 55 -39 95t-94 40q-55 1 -96 -40q-41 -42 -40 -96t40 -93t95 -39t95 39t39 94zM2441 733
q0 82 -53 135q-54 54 -120 54t-116 -33q160 -131 220 -293q69 55 69 137zM2308 422q0 254 -285 442q-145 96 -331 146t-379 47q-435 -5 -717 -193q-281 -188 -281 -442t283 -442q148 -96 336 -146q362 -95 758 0q188 45 331 146q285 188 285 442zM364 922q-66 0 -120 -54
t-54 -132q0 -79 62 -134q61 160 223 289q-45 31 -111 31zM1686 387q-68 0 -119 49t-51 119t51 119t119 51t118 -51t50 -121q-1 -68 -50 -117q-50 -49 -118 -49zM950 387q-70 0 -121 49t-49 119q0 70 49 119t121 51t119 -51t48 -121t-48 -117t-119 -49zM922 74q-26 39 0 67
q12 15 31 15t36 -15q68 -55 144 -73t182 -20q199 -5 327 93q41 32 68 0q27 -31 0 -67q-105 -121 -392 -121q-288 0 -396 121z" />
    <glyph glyph-name="all" unicode="&#xe803;" horiz-adv-x="1921" 
d="M1921 190q4 -102 -91 -158t-183 -5q-91 47 -95 157t84 162q88 59 188 5q99 -55 97 -161zM1149 1556q4 -102 -91 -158t-184 -5q-90 45 -94 157t84 162q62 35 126 27q64 -7 112 -61t47 -122zM371 190q4 -102 -91 -158t-184 -5q-90 47 -94 157t84 162q88 58 188 4t97 -160z
M1294 -150q35 -41 68 -71q-174 -80 -370 -86t-371 63q-39 4 -44 17q-6 13 2 24q9 11 16 19t17 19t17 18q157 -65 331 -67t334 64zM1821 739q-25 238 -172 432q-19 39 -69 79q-96 76 -95 118q0 25 20 66q165 -113 271 -284t133 -366q19 -55 -11 -59t-77 14zM404 1423
q10 0 18 -5t12 -22q4 -18 10 -34t7 -23q-256 -190 -326 -497q-2 -61 -28 -91t-85 -32q14 197 109 375q94 178 248 299q25 30 35 30z" />
    <glyph glyph-name="categorymovie" unicode="&#xe804;" 
d="M459 1094h41v-758h-41v758zM1585 1094h43v-758h-43v758zM1767 211v-31h-1757v402h17q61 0 104 44t43 104t-43 104t-104 43h-17v403h2026v-401h-17q-59 0 -103 -43q-44 -42 -44 -104t44 -105t103 -43h17v-217h-29v188q-68 4 -116 55t-48 121t48 121t116 55v342h-1968v-342
q70 -4 118 -55t48 -121t-48 -121t-118 -55v-344h1728z" />
    <glyph glyph-name="categorygames" unicode="&#xe805;" 
d="M2036 735q0 -213 -152 -364q-150 -154 -362 -154q-172 0 -314 113q-86 68 -159 207h-60q-59 -129 -186 -223t-287 -95q-212 0 -362 153q-150 154 -150 366t152 364q147 152 360 151h311v-59h-311q-186 0 -318 -134t-132 -322t132 -323q132 -134 318 -134q147 0 263 90
t163 209l8 18h137l9 -18q61 -133 151 -203q127 -98 277 -98q184 0 317 133q133 132 133 324t-133 325t-313 133h-314v59h314q212 1 360 -152t148 -366zM1288 731q0 51 40 73t81 0t41 -73t-41 -73t-81 0t-40 73zM1624 562q0 -44 -26 -66t-56 -21q-30 -1 -54 21q-26 22 -26 66
t41 66t81 0t40 -66zM1462 907q0 51 41 73t81 0t40 -73t-40 -73t-81 0t-41 73zM1638 731q0 51 41 73t81 0t40 -73t-40 -73t-81 0t-41 73zM614 698h-88v-88q0 -14 -21 -30t-43 0q-21 16 -22 30v88h-80q-14 0 -24 14t-10 30t10 30t24 14h82v78q0 14 14 24t28 11q14 0 28 -10
t14 -25v-78h88q14 0 24 -14t11 -30t-11 -30t-24 -14z" />
    <glyph glyph-name="categorylifestyle" unicode="&#xe806;" 
d="M1532 319q-217 0 -340 142q-57 64 -134 261q-7 17 -9 23q-17 9 -23 9t-16 -11q-12 -23 -21 -53q-57 -158 -125 -235q-123 -141 -342 -142h-10q-227 6 -326 125q-57 70 -106 264q-14 61 -21 82l-43 2v60l-2 133v49l47 12q55 18 175 32q120 13 221 13q272 0 493 -81
q20 -4 74 -4t78 8q225 82 469 82t416 -41h55v-256l-47 -2q-10 -61 -16 -76q-5 -16 -11 -40t-10 -36h-64q15 68 43 176q24 39 41 39v135l-45 10q-139 31 -367 31t-444 -80q-36 -12 -92 -12t-96 8q-218 78 -458 78t-400 -43l2 -133q25 -2 41 -39q8 -31 23 -94q46 -194 96 -240
q79 -72 141 -84q63 -12 135 -14h8q199 0 292 117q78 98 103 178q26 80 41 110q33 35 73 35t69 -35q10 -16 40 -103t103 -179q95 -117 289 -117h12q25 0 37 2v-63q-12 -2 -37 -3h-12z" />
    <glyph glyph-name="categorytv" unicode="&#xe807;" 
d="M1075 88q0 -25 43 -41h379v-39h-934v39h377q47 18 45 41v72h-913q-25 0 -43 18t-19 43v1143q0 25 18 43t44 18h1915q27 0 45 -18t18 -43v-823h-63v772q-1 23 -17 40t-41 17h-1800q-23 0 -40 -17t-17 -40v-971q0 -23 17 -40t40 -17h1604v-123h-658v-74z" />
    <glyph glyph-name="facebook" unicode="&#xe808;" 
d="M1497 1660h-324q-70 0 -125.5 -10t-96.5 -27.5t-70.5 -46t-48.5 -62t-30 -79.5t-15 -93t-4 -108v-183h-194v-304h194v-973h388v973h323l8 304h-331v183q0 68 35.5 99t128.5 31l162 -8v304zM1497 1741q34 0 57.5 -23t23.5 -58v-302q0 -35 -25 -59q-26 -21 -56 -21h-3
l-159 8q-31 0 -47 -2t-23.5 -9t-9 -14t-1.5 -24v-102h251q32 0 56.5 -24.5t24.5 -59.5l-11 -307q0 -32 -24 -55t-57 -23h-243v-892q0 -35 -23 -58t-57 -23h-388q-35 0 -58 23t-23 58v892h-113q-35 0 -58 23t-23 58v304q0 35 23 58t58 23h113v102q0 62 4 112t16.5 104t34 95
t57.5 79.5t84.5 63t118 39t156.5 14.5h324z" />
    <glyph glyph-name="info" unicode="&#xe809;" 
d="M942 1185q0 43 26 65t56 22t54 -22q26 -22 26 -65q0 -44 -41 -66t-81 0t-40 66zM1024 90q-28 0 -50 22t-22 50v778q0 29 22 49q22 21 50 21t50 -20t22 -50v-778q0 -28 -22 -50t-50 -22zM1024 -307q-278 0 -514 137t-373 374q-137 236 -137 514t137 514t373 372
q236 137 514 137t514 -137t373 -373q137 -237 137 -515t-137 -514t-373 -372q-236 -137 -514 -137zM1024 1655q-254 0 -470 -126t-342 -342t-126 -470t126 -470t342 -342t470 -126t470 126t342 342t126 470t-126 470t-342 342t-470 126z" />
    <glyph glyph-name="favorites" unicode="&#xe80a;" horiz-adv-x="2514" 
d="M1264 -305h-15q-16 0 -26 10l-1051 1051q-168 170 -168 408t171 408q171 169 407 169t405 -170l268 -268l271 268q170 170 408 170t406 -169q169 -169 169 -409t-168 -407l-744 -744l-49 51l742 742q147 147 147 357t-147 358q-152 147 -359 147t-354 -147l-295 -295
q-25 -25 -51 0l-293 295q-147 147 -357 147q-209 0 -357 -147q-148 -146 -148 -356t147 -359l1084 -1084l-17 -16q-8 -10 -26 -10z" />
    <glyph glyph-name="play" unicode="&#xe80b;" 
d="M213 -152v687l207 208v-536l997 596l-997 590v-336l-207 -209v895l1597 -938z" />
    <glyph glyph-name="pause" unicode="&#xe80c;" horiz-adv-x="1054" 
d="M133 -188l-133 73v1856l133 -72v-1857zM934 -188l-131 73v1856l131 -72v-1857z" />
    <glyph glyph-name="expand" unicode="&#xe80d;" 
d="M0 986v755h755l-69 -78h-608v-606zM1428 1663l-72 78h755v-755l-77 69v608h-606zM2034 377l77 71v-755h-755l70 78h608v606zM684 -229l71 -78h-755v755l78 -69v-608h606z" />
    <glyph glyph-name="collapse" unicode="&#xe80e;" horiz-adv-x="2439" 
d="M755 1741v-755h-755l69 77h609v607zM2040 1063l71 -77h-755v755l78 -69v-609h606zM1434 -236l-79 -71v755h755l-69 -77h-607v-607zM71 372l-71 77h755v-755l-77 69v609h-607z" />
    <glyph glyph-name="close" unicode="&#xe80f;" 
d="M2048 -226q0 -34 -24 -58t-59 -23q-34 0 -58 24l-883 883l-883 -883q-25 -25 -59 -25t-58 26q-24 24 -24 58t25 58l882 883l-882 882q-25 25 -25 60t25 59t59 23q34 0 57 -25l883 -883l883 883q25 25 59 25t58 -25q24 -24 24 -58t-25 -59l-883 -883l883 -884
q25 -24 25 -58z" />
    <glyph glyph-name="search" unicode="&#xe810;" 
d="M1837 -279q-6 0 -18 13l-615 852q-156 -106 -342 -107q-258 1 -440 183t-182 438t182 438t439 182t439 -182t183 -438q0 -121 -45 -232q-6 -23 -33 -14q-23 6 -14 33q39 106 39 211q0 238 -168 404t-404 167q-236 0 -404 -168q-168 -167 -167 -403q0 -236 168 -404
t403 -168q180 0 334 111q4 6 11 6t24 -10l633 -873q16 -18 -5 -34q-12 -5 -18 -5z" />
    <glyph glyph-name="menu" unicode="&#xe811;" 
d="M6 1397h2042v-80h-2042v80zM6 756h2042v-80h-2042v80zM6 115h2042v-80h-2042v80z" />
    <glyph glyph-name="twitter" unicode="&#xe812;" horiz-adv-x="1884" 
d="M1363 1654q-92 0 -176.5 -37t-145.5 -100t-96.5 -151t-34.5 -185q0 -60 12 -106q-280 12 -524 143t-416 350q-61 -117 -61 -239t54.5 -227t147.5 -169q-109 5 -208 61v-6q0 -170 104 -299.5t262 -161.5q-60 -18 -121 -18q-43 0 -86 9q46 -143 163 -235t264 -94
q-119 -97 -263.5 -149.5t-302.5 -52.5q-75 0 -109 6q318 -213 698 -213q154 0 296.5 32t260.5 90t222 138.5t184.5 177.5t144 207t104.5 227t62 237t21 238v60q136 101 228 245q-131 -58 -263 -75q70 46 122 114t77 149q-135 -86 -288 -116q-64 71 -150 110.5t-182 39.5z
M1986 1620zM1363 1741q99 0 193 -37t168 -104q116 31 216 92q19 14 43 14h3q37 0 62 -24.5t25 -61.5q0 -12 -6 -29q-14 -43 -29 -72h9q41 0 66 -29q19 -21 21.5 -50.5t-12.5 -53.5q-96 -146 -214 -239v-20q0 -260 -93 -512.5t-261 -451.5q-60 -70 -127 -132t-164 -126
t-203.5 -109.5t-246 -74t-289.5 -28.5q-404 0 -750 228q-24 15 -33.5 44t1.5 57q9 25 31.5 41.5t49.5 16.5h11q64 -6 98 -6q179 0 349 81q-102 50 -178 138t-113 202q-13 45 17 81q-83 79 -130.5 187.5t-47.5 227.5v6q0 23 11.5 43.5t31.5 31.5q3 1 8.5 4t8.5 4
q-57 116 -57 251q0 149 72 280q21 39 69 43h9q39 0 66 -31q144 -186 345.5 -303.5t427.5 -149.5v11q0 91 27.5 176.5t77.5 154.5t116.5 120.5t149.5 80t171 28.5z" />
    <glyph glyph-name="replay" unicode="&#xe813;" 
d="M1903 569q0 -182 -76 -351t-211 -288q-201 -188 -488 -219t-524 111q-233 129 -353 383t-71 514q46 287 270 493t513 226v293q201 -164 423 -361q-257 -224 -423 -360v280q-209 -18 -379 -153q-195 -150 -252 -403t53 -472q101 -219 331 -333t466 -60q244 45 411 250
t162 450h148z" />
    <glyph glyph-name="share" unicode="&#xe814;" 
d="M1006 723h49l32 -2v-436l852 633l-852 622l-2 -422h-34q-545 -25 -758 -262q-84 -92 -135 -206q-50 -114 -62 -203q-31 -237 -8 -283l12 -121l47 111q88 213 248 354q244 215 611 215zM1018 653h-12q-381 0 -608 -237q-116 -121 -187 -287l-152 -362l-41 393
q-30 307 101 563q49 96 123 178q227 254 774 285l4 489l1036 -755l-1038 -773v506z" />
    <glyph glyph-name="forward" unicode="&#xe815;" 
d="M557 1739l1024 -1024l-1024 -1022l-39 39l983 983l-983 983z" />
    <glyph glyph-name="home" unicode="&#xe816;" 
d="M1927 760h-94v162l-805 692l-805 -692v-1131h1610v440h94v-534h-1798v1268l899 774l899 -774v-205z" />
    <glyph glyph-name="skipped" unicode="&#xe817;" 
d="M1063 717q0 -18 -14 -37l-963 -965q-14 -14 -36 -14t-36 14q-14 15 -14 35t16 37l926 930l-928 932q-14 14 -14 34t14 37q41 32 72 0l963 -966q14 -14 14 -35v-2zM2042 719v-2q0 -23 -14 -37l-959 -963q-15 -16 -37 -16t-38 15q-16 14 -15 34q0 20 16 37l928 930
l-928 932q-16 14 -16 34q0 19 15 35q32 33 71 2l963 -966q14 -12 14 -35z" />
    <glyph glyph-name="unseen" unicode="&#xe818;" 
d="M1026 193q-158 0 -324 58t-280 130t-235 175q-122 103 -183 179l49 56q117 131 368 296q120 81 284 137q163 56 321 56t324 -58t280 -131t238 -179q125 -106 180 -177l-63 -67h-101q41 41 64 67l-47 51q-109 119 -330 268q-109 73 -256 123t-289 50t-293 -53
q-150 -53 -252 -118t-211 -160t-166 -161l46 -51q115 -125 329 -266q109 -72 256 -122t291 -50q289 -1 584 198v-73q-301 -178 -584 -178z" />
    <glyph glyph-name="seen" unicode="&#xe819;" 
d="M1024 1303q158 -1 324 -59t278 -131t238 -179q125 -106 182 -176l-14 -17q-39 -43 -125 -123h-103q88 80 140 140l-48 49q-121 121 -334 256q-110 70 -255 118t-285 48t-286 -51q-148 -50 -250 -112t-210 -151q-107 -89 -172 -157l52 -49q113 -113 346 -258
q111 -70 253 -117t269 -45q301 0 561 164v-72q-291 -166 -561 -166q-158 0 -324 58t-278 130t-238 178q-125 106 -180 177l49 57q121 130 368 295q121 80 283 136t320 57zM1270 762q0 102 -72 174t-174 72t-174 -72t-72 -174t72 -174t174 -72t174 72t72 174zM713 762
q0 129 92 220t220 91t219 -91t91 -220t-91 -220t-220 -91t-220 91t-91 220z" />
    <glyph glyph-name="back" unicode="&#xe81a;" 
d="M1528 -319l-1024 1024l1024 1024l39 -41l-982 -984l984 -983z" />
    <glyph glyph-name="profile" unicode="&#xe81b;" 
d="M258 469l-37 14l-2 2q-53 33 -63 74q-8 41 55 129q2 2 13 18t18 27q82 121 75 170q-28 56 -8 230v2q41 239 210 389t448 192l6 2q616 100 807 -340q151 -348 58 -585q-30 -78 -50 -113q-20 -36 -69 -104t-63 -142t-5 -179q10 -105 30 -183h-88q-18 66 -28 180t6 201
q16 88 90 190q33 47 52 79t45 102t28 136t-18 168q-19 102 -68 218q-168 383 -715 288h-6q-259 -43 -407 -178t-181 -334q-16 -147 0 -180l6 -24q16 -78 -86 -234q-66 -87 -71 -109q24 -24 39 -24q41 -14 55 -41t2 -78q0 -2 -5 -10q-14 -22 21 -33q27 -6 31 -33t-16 -41
q-21 -21 -3 -33q19 -12 19 -14q49 -37 29 -96q0 -8 -4 -12v-13q0 -31 26 -55q49 -45 189 -20q51 10 96 13q98 7 162 -105q65 -111 71 -203h863q4 -7 8 -13t11 -17t-5 -34q-14 -20 -37 -20h-881q-18 0 -30 12t-13 31q6 96 -53 194q-29 52 -67 64t-107 -6q-184 -35 -262 41
q-53 47 -53 139q2 18 6 31l2 2q-2 0 -2 2q-57 39 -58 92q-4 20 7 37q-60 53 -25 125q0 8 2 12z" />
    <glyph glyph-name="volume" unicode="&#xe81c;" 
d="M1722 717q0 -250 -168 -426v854q168 -178 168 -428zM1538 719q0 -186 -123 -320v637q123 -131 123 -317zM1358 716q0 -124 -84 -212v426q84 -90 84 -214zM467 502v430h240l380 342v-1114l-380 342h-240z" />
    <glyph glyph-name="volumemute" unicode="&#xe81d;" 
d="M467 502v430h240l380 342v-1114l-380 342h-240z" />
    <glyph glyph-name="email" unicode="&#xe81e;" 
d="M2038 100q0 -20 -14 -35t-35 -16h-1930q-49 0 -51 51v1215q0 21 16 35t35 14h1762l-64 -57h-1689v-29q8 -8 216 -178t406 -333l223 -181q66 -43 127 -43t121 43l457 379h98l-305 -269l569 -440v668l58 45v-869zM68 1196v-942l589 438l-16 17q-205 174 -438 370l-41 37
q-10 8 -32 28t-34 27zM1974 109v51l-612 495l-152 -133q-70 -63 -166 -63t-180 63l-162 133l-630 -495l2 -51h1900z" />
    <glyph glyph-name="tech" unicode="&#xe81f;" 
d="M1405 23v-330h-117v233h-205v-233h-112v233h-205v-233h-111v233h-204v-233h-113v231l-92 78h-223v115h237v209h-237v116h237v209h-237v115h237v209h-237v117h237v208h-237v115h223l92 96v230h113v-244h204v244h111v-244h205v244h112v-244h205v244h111v-244h205v244h112
v-230l92 -94h224v-114h-238v-261h238v-114h-238v-209h238v-117h-238v-209h238v-117h-322v1106h-1366l23 -1359h1038z" />
    <glyph glyph-name="clock" unicode="&#xe820;" 
d="M1024 1741q164 0 319.5 -52.5t281.5 -148.5t222 -222t148.5 -281.5t52.5 -319.5t-52.5 -319.5t-148.5 -281.5t-222.5 -222t-282 -148.5t-318.5 -52.5t-318.5 52.5t-282 148.5t-222.5 222.5t-148.5 282t-52.5 318.5t52.5 318.5t148.5 282t222.5 222.5t282 148.5
t318.5 52.5zM1024 -209q106 0 209.5 24.5t194.5 71t171.5 110.5t144.5 145t110.5 172t71 194t24.5 209t-24.5 209t-71 194t-110.5 172t-145 145t-172 110.5t-194 71t-209 24.5t-209 -24.5t-194 -71t-172 -110.5t-145 -144.5t-110.5 -171.5t-71 -194.5t-24.5 -209.5
q0 -124 33.5 -243t94 -220.5t147 -188t188 -147t221 -94t242.5 -33.5zM1556 197q12 -14 11.5 -31.5t-14.5 -29.5q-12 -12 -28 -12q-20 0 -32 15l-438 480q-16 -4 -30 -4q-21 0 -40 8t-32.5 21.5t-22 32.5t-8.5 40q0 31 16.5 55.5t43.5 36.5v387q0 18 12.5 30.5t30 12.5
t30.5 -12.5t13 -30.5v-387q26 -12 42.5 -37t16.5 -55q0 -21 -8 -40z" />
  </font>
</defs>
</svg>
