<?xml version="1.0" encoding="utf-8"?>
<!-- Generator: Adobe Illustrator 20.1.0, SVG Export Plug-In . SVG Version: 6.00 Build 0)  -->
<svg version="1.1" id="Layer_1" xmlns="http://www.w3.org/2000/svg" xmlns:xlink="http://www.w3.org/1999/xlink" x="0px" y="0px"
	 viewBox="0 0 211.6 259.4" style="enable-background:new 0 0 211.6 259.4;" xml:space="preserve">
<style type="text/css">
	.st0{fill:#FFFFFF;}
</style>
<path class="st0" d="M210.5,250.4l-80.6-110.9l-0.3-0.3c-0.7-0.7-2-2-4-2c-1.1,0-2.5,0-3.8,1.2c-12.4,9.1-26.1,13.6-40.7,13.6
	c-38.7,0-70.2-31.5-70.2-70.2s31.5-70.2,70.2-70.2s70.2,31.5,70.2,70.2c0,8.6-1.6,17.1-4.9,25.9c-0.6,1.5-0.5,3.1,0.1,4.5
	s1.8,2.4,3.3,2.9c1.4,0.6,3,0.5,4.4-0.1s2.4-1.8,2.9-3.2c3.9-9.7,5.9-19.9,5.9-30.3C163,36.6,126.4,0,81.5,0S0,36.6,0,81.5
	S36.6,163,81.5,163c15.6,0,30-4.3,43-12.7l76.9,106.4c1.1,1.7,2.9,2.7,4.6,2.7c1.2,0,2.2-0.5,3-0.9l0.4-0.2c1.1-0.9,1.9-2.2,2.1-3.7
	C211.7,253,211.4,251.5,210.5,250.4z"/>
</svg>
