<?xml version="1.0" encoding="UTF-8" standalone="no"?>
<!-- Created with Inkscape (http://www.inkscape.org/) -->
<svg id="svg7464" xmlns:rdf="http://www.w3.org/1999/02/22-rdf-syntax-ns#" xmlns="http://www.w3.org/2000/svg" height="101.65mm" width="145.66mm" version="1.1" xmlns:cc="http://creativecommons.org/ns#" xmlns:dc="http://purl.org/dc/elements/1.1/" viewBox="0 0 516.12142 360.18436">
 <metadata id="metadata7469">
  <rdf:RDF>
   <cc:Work rdf:about="">
    <dc:format>image/svg+xml</dc:format>
    <dc:type rdf:resource="http://purl.org/dc/dcmitype/StillImage"/>
    <dc:title/>
   </cc:Work>
  </rdf:RDF>
 </metadata>
 <g id="layer1" transform="translate(-24.771 -23.713)">
  <g id="g7483">
   <path id="path7497" fill="#c7c7c7" d="m164.06 382.59c-1.2707-1.2707-1.6112-6.5647-0.59301-9.2182 0.54131-1.4106 5.5994-1.5824 46.75-1.5874 30.183-0.004 47.499-0.38213 50.064-1.0943 2.1566-0.59878 5.1942-2.3617 6.75-3.9175 2.6895-2.6895 2.8288-3.2757 2.8288-11.906v-9.0769l-116.25-0.022c-111.48-0.0211-116.42-0.0988-120.38-1.8959-4.5212-2.0531-5.256-2.8895-7.1002-8.0822-1.7218-4.848-1.852-296.97-0.13463-302.1 1.7948-5.3585 4.4199-7.5344 10.583-8.7722 7.9974-1.6061 484.56-1.6061 492.56 0 6.1634 1.2378 8.7885 3.4137 10.583 8.7722 0.82278 2.4565 1.1385 32.749 1.1385 109.23v105.83l-2.2917 0.57517c-1.2604 0.31634-4.9729 0.43742-8.25 0.26905l-5.9583-0.30612-0.5-99.5c-0.55639-110.72-0.0902-103.81-7.2669-107.73-3.0644-1.6748-15.255-1.7669-233.73-1.7669s-230.67 0.09215-233.73 1.7669c-1.7782 0.97181-4.0282 3.2218-5 5-1.6626 3.0421-1.7669 10.616-1.7669 128.23 0 136.7-0.32338 129.35 5.8821 133.78l3.1179 2.224 205 0.5 205 0.5v16.5 16.5l-82.5 0.5-82.5 0.5v9.3386c0 8.9493 0.11471 9.4372 2.7516 11.703 1.5134 1.3007 4.4384 2.8333 6.5 3.4058 2.3466 0.6517 21.004 1.0431 49.891 1.0466 41.151 0.005 46.209 0.17672 46.75 1.5874 1.0182 2.6535 0.67767 7.9475-0.59301 9.2182-1.7424 1.7424-235.86 1.7424-237.6 0z"/>
   <path id="path7495" fill="#b1b1b1" d="m164.53 382.13c-0.36891-0.36891-0.67075-2.5726-0.67075-4.8971 0-2.9314 0.48466-4.4123 1.5818-4.8333 0.86998-0.33385 22.514-0.60699 48.099-0.60699 49.926 0 50.328-0.0378 54.978-5.1751 2.3039-2.5449 3.3053-17.958 1.322-20.348-1.0685-1.2875-16.146-1.4772-117.37-1.4772-131.45 0-120.89 0.6765-125.36-8.0359l-2.25-4.3879v-146.92c0-107.34 0.30804-147.95 1.1434-150.74 0.62887-2.099 2.4584-5.0762 4.0657-6.616l2.9223-2.7997h249.87 249.87l2.9223 2.7997c1.6072 1.5398 3.4368 4.517 4.0657 6.616 0.82642 2.7583 1.1434 32.973 1.1434 108.99v105.17l-8.25-0.29044-8.25-0.29044-0.5-100c-0.4-80.034-0.77-100.46-1.82-102.3-0.7226-1.2669-2.7476-3.1777-4.5-4.2463-3.1307-1.9089-7.2202-1.9428-234.69-1.9428-230.43 0-231.52 0.0093-234.81 2.0182-6.5455 3.9907-6.1898-3.7075-6.1898 133.97s-0.35567 129.98 6.1898 133.97c3.2914 2.0067 4.4631 2.0182 206.87 2.0219 161.88 0.003 203.91 0.26113 205.28 1.2609 1.5162 1.1087 1.6864 3.0277 1.4411 16.25l-0.27812 14.993-82.5 0.5-82.5 0.5-0.29505 8.5c-0.37983 10.942 0.0552 12.425 4.5392 15.472l3.7201 2.5279 47.518 0.0153c26.135 0.008 48.11 0.39052 48.833 0.84911 0.84969 0.53882 1.2035 2.3908 1 5.2347l-0.31487 4.4009-118.08 0.25408c-64.944 0.13974-118.38-0.0478-118.75-0.41667z"/>
   <path id="path7493" fill="#747474" d="m164.86 377.79v-5h47.032c50.796 0 51.087-0.0278 56.458-5.3995 2.3463-2.3463 2.5096-3.163 2.5096-12.555v-10.045h-116.29-116.29l-4.4619-2.25c-3.2595-1.6437-5.0682-3.4523-6.7119-6.7119l-2.25-4.4619v-147.13-147.13l2.2749-4.3019c1.3417-2.5371 3.6941-5.0631 5.7344-6.1573 3.3428-1.7927 11.777-1.8553 249.99-1.8553s246.65 0.06259 249.99 1.8553c2.0425 1.0954 4.3931 3.6208 5.7389 6.1659l2.2795 4.3105-0.25455 105.58-0.25454 105.58h-7.5-7.5l-0.5-99.5c-0.56-112.3 0.06-104.26-8.31-108.06-4.07-1.844-10.39-1.896-233.62-1.917l-229.43-0.022-4.257 2.06c-3.0897 1.4957-4.82 3.226-6.3157 6.3157-2.0467 4.2279-2.06 5.0667-2.0381 128.69 0.02119 120.08 0.08846 124.58 1.9214 128.62 1.1754 2.5888 3.1683 4.8761 5.228 6 3.177 1.7336 12.641 1.8391 207.83 2.3163l204.5 0.5v15.5 15.5l-82.75 0.25578-82.75 0.25578v9.0439c0 10.95 1.2942 13.94 7.2884 16.842 4.2254 2.0455 5.6207 2.1024 51.527 2.1024h47.184v5 5h-118-118v-5z"/>
   <path id="path7491" fill="#505050" d="m164.86 378.4c0-3.0834 0.47156-4.574 1.5818-5 0.86998-0.33385 22.488-0.60699 48.04-0.60699 44.56 0 46.619-0.0821 50.398-2.0098 2.1668-1.1054 4.6238-3.333 5.4602-4.9503 1.8853-3.6458 2.1221-19.038 0.32061-20.84-0.91958-0.91958-28.389-1.2-117.55-1.2-128.93 0-119.48 0.50494-124.95-6.6711l-2.8017-3.6732v-149.08-149.08l2.5-3.35c1.375-1.8425 4.1696-4.205 6.2102-5.25 3.6153-1.8514 9.978-1.9 248.79-1.9s245.17 0.04859 248.79 1.9c2.0406 1.045 4.8352 3.4075 6.2102 5.25l2.5 3.35 0.26775 106.29 0.26775 106.29-7.7678-0.29239-7.7678-0.29238-0.5-100.32-0.5-100.32-4.2113-3.928-4.2113-3.928h-233-233l-3.4116 2.9954c-1.8764 1.6475-3.9235 4.235-4.5491 5.75-0.83448 2.0207-1.0671 36.639-0.87323 129.94l0.26432 127.18 3 3.1516c1.65 1.7334 3.9 3.6754 5 4.3155 1.4957 0.87045 53.565 1.29 206.5 1.6639l204.5 0.5v14.5 14.5l-81.905 0.25588c-61.571 0.19235-82.261 0.55158-83.34 1.447-1.1064 0.9182-1.3573 3.3046-1.0954 10.415 0.30237 8.2078 0.61532 9.519 2.8398 11.898 5.2315 5.595 4.1278 5.4837 54.369 5.4837 25.557 0 47.18 0.27314 48.05 0.60699 1.1102 0.42603 1.5818 1.9166 1.5818 5v4.393h-118-118v-4.393z"/>
   <path id="path7489" fill="#303030" d="m165.7 378.29 0.3579-4.5h46.939c44.172 0 47.158-0.11216 50.649-1.9027 2.0406-1.0465 4.7391-3.0055 5.9968-4.3534 2.1241-2.2765 2.2662-3.1898 2-12.847l-0.2866-10.397-117.5-0.5c-86.006-0.36599-118.04-0.80865-119.5-1.6516-1.1-0.63336-3.575-2.8825-5.5-4.9981l-3.5-3.8465v-148.5-148.5l2.3575-3.3053c1.2966-1.8179 4.1002-4.4054 6.2301-5.75l3.8727-2.4447h245.04 245.04l3.8727 2.4447c2.13 1.3446 4.9335 3.9321 6.2301 5.75l2.3575 3.3053 0.26783 105.79 0.26783 105.79-7.2678-0.29417-7.2678-0.29417-0.5-99.677c-0.49521-98.722-0.51975-99.703-2.5618-102.44-1.134-1.5187-3.3045-3.689-4.8233-4.823l-2.7615-2.0618h-232.85-232.85l-2.8233 2.0585c-1.5528 1.1322-3.8426 4.0537-5.0883 6.4923l-2.265 4.4337 0.26497 126.09 0.26497 126.09 2.7906 3.6585c1.5349 2.0122 3.7849 4.227 5 4.9219 1.7523 1.002 44.519 1.3669 206.71 1.7634l204.5 0.5v14.5 14.5l-82.5 0.5-82.5 0.5-0.28303 10.073c-0.32307 11.498 0.72154 13.824 7.8377 17.455 3.6849 1.8799 6.0604 1.9721 50.805 1.9721h46.939l0.3579 4.5 0.3579 4.5h-117.51-117.51l0.3579-4.5z"/>
   <path id="path7487" fill="#181818" d="m165.36 382.03c0.55-0.40408 1-2.3097 1-4.2347v-3.5l48-0.5c51.826-0.53985 50.973-0.44843 56.002-6.0002 1.6529-1.8244 2.0571-3.919 2.3424-12.136 0.23574-6.7906-0.0401-10.395-0.87244-11.397-1.0569-1.2735-16.639-1.4671-118.34-1.4704-115.25-0.004-117.18-0.0358-120.4-1.9977-1.7987-1.0967-3.7834-3.12-4.4105-4.4963-0.62707-1.3763-1.5179-2.5023-1.9796-2.5023-0.46172 0-0.83205-67.162-0.82297-149.25l0.01652-149.25 4.4014-4.25c2.4208-2.3375 5.1133-4.25 5.9835-4.25 0.87015 0 1.5821-0.45 1.5821-1 0-0.66395 82.333-1 245-1s245 0.33605 245 1c0 0.55 0.71194 1 1.5821 1 0.87015 0 3.5627 1.9125 5.9835 4.25l4.4014 4.25 0.0174 106 0.0174 106-6.7509-0.5-6.7509-0.5-0.5-99.5c-0.48-94.777-0.59-99.639-2.36-102.24-1.0194-1.5028-3.3225-3.6403-5.118-4.75-3.2496-2.0083-4.3337-2.0176-235.66-2.0176h-232.4l-3.5892 2.4389c-7.3864 5.0192-6.8751-5.0637-6.8751 135.56 0 141.39-0.58234 130.6 7.3331 135.84l4.0206 2.6608 204.35 0.26182 204.35 0.26182-0.27815 13.738-0.27814 13.738-81.905 0.25588c-58.49 0.18273-82.289 0.57508-83.25 1.3724-0.93718 0.7778-1.3449 3.7342-1.3438 9.7441 0.002 10.189 1.7289 14.531 6.9984 17.594 3.3517 1.9479 5.5334 2.0552 51.5 2.534l48 0.5v3.5c0 1.925 0.45 3.8306 1 4.2347 0.55 0.40408-52.325 0.73468-117.5 0.73468s-118.05-0.3306-117.5-0.73468z"/>
   <path id="path7485" d="m223.61 382.04c32.588-0.1463 85.912-0.1463 118.5 0 32.588 0.14631 5.925 0.26602-59.25 0.26602s-91.838-0.11971-59.25-0.26602zm-56.75-4.2502v-3h46.788c46.55 0 46.811-0.0115 51.191-2.25 7.3727-3.7672 8.5204-6.2243 8.5204-18.24 0-5.6888-0.37488-10.718-0.83308-11.177-0.45819-0.45833-54.028-1.0583-119.04-1.3333-112.29-0.47493-118.35-0.59152-121-2.3255-1.5321-1.004-3.3658-3.2054-4.0749-4.8919-0.85238-2.0272-1.4763-2.5947-1.841-1.6745-0.30343 0.76556-0.5517-65.883-0.5517-148.11 0-82.225 0.24175-148.89 0.53721-148.15 0.32674 0.82017 1.2256-0.18902 2.2942-2.5759 3.5698-7.9735-20.908-7.2726 254.01-7.2726s250.44-0.70083 254.01 7.2726c1.0686 2.3868 1.9675 3.396 2.2942 2.5759 0.29547-0.74167 0.53722 46.577 0.53722 105.15 0 58.575-0.22698 105.94-0.50439 105.25-0.32374-0.80232-2.6234-1.25-6.421-1.25h-5.9167v-97.788-97.788l-2.25-4.4578c-1.4825-2.9372-3.6144-5.221-6.25-6.6954l-4-2.2377h-231.5-231.5l-4 2.2377c-2.6356 1.4744-4.7675 3.7582-6.25 6.6954l-2.25 4.4578v125.58 125.58l2.25 4.4578c1.4825 2.9372 3.6144 5.221 6.25 6.6954l4 2.2377 203.75 0.0164 203.75 0.0165v13.5 13.5h-79.875c-43.931 0-81.281 0.28125-83 0.625l-3.125 0.625 0.004 10.625c0.004 12.582 1.3354 15.658 8.2143 18.988 4.3142 2.0885 5.463 2.1365 51.098 2.1365h46.684v3 3h-116-116v-3zm-6.75-352.75c67.512-0.14187 177.99-0.14187 245.5 0 67.512 0.14187 12.275 0.25794-122.75 0.25794s-190.26-0.11607-122.75-0.25794z"/>
  </g>
 </g>
</svg>
