<?xml version="1.0" encoding="UTF-8" standalone="no"?>
<svg
   xmlns:dc="http://purl.org/dc/elements/1.1/"
   xmlns:cc="http://creativecommons.org/ns#"
   xmlns:rdf="http://www.w3.org/1999/02/22-rdf-syntax-ns#"
   xmlns:svg="http://www.w3.org/2000/svg"
   xmlns="http://www.w3.org/2000/svg"
   xmlns:sodipodi="http://sodipodi.sourceforge.net/DTD/sodipodi-0.dtd"
   xmlns:inkscape="http://www.inkscape.org/namespaces/inkscape"
   viewBox="0 0 500 500"
   height="500"
   width="500"
   xml:space="preserve"
   id="svg2"
   version="1.1"
   inkscape:version="0.91 r13725"
   sodipodi:docname="iconReplay.svg"><sodipodi:namedview
     pagecolor="#fffff8"
     bordercolor="#666666"
     borderopacity="1"
     objecttolerance="10"
     gridtolerance="10"
     guidetolerance="10"
     inkscape:pageopacity="0.38823529"
     inkscape:pageshadow="2"
     inkscape:window-width="1263"
     inkscape:window-height="793"
     id="namedview24"
     showgrid="false"
     inkscape:zoom="0.40590745"
     inkscape:cx="-67.915496"
     inkscape:cy="290.70667"
     inkscape:window-x="0"
     inkscape:window-y="0"
     inkscape:window-maximized="0"
     inkscape:current-layer="svg2" /><metadata
     id="metadata8"><rdf:RDF><cc:Work
         rdf:about=""><dc:format>image/svg+xml</dc:format><dc:type
           rdf:resource="http://purl.org/dc/dcmitype/StillImage" /><dc:title></dc:title></cc:Work></rdf:RDF></metadata><defs
     id="defs6"><clipPath
       id="clipPath18"
       clipPathUnits="userSpaceOnUse"><path
         id="path16"
         d="m 0,436.06 358.207,0 L 358.207,0 0,0 Z"
         inkscape:connector-curvature="0" /></clipPath><clipPath
       id="clipPath26"
       clipPathUnits="userSpaceOnUse"><path
         id="path24"
         d="m 4,413.06 354.207,0 L 358.207,0 4,0 Z"
         inkscape:connector-curvature="0" /></clipPath></defs><g
     id="g12"
     transform="matrix(1.1961539,0,0,-1.1961539,428.69909,284.97389)"><path
       id="path46"
       style="fill:#000000;fill-opacity:1;fill-rule:nonzero;stroke:none"
       d="m 0,0 c 1.2987379,-67.778394 -50.598005,-131.46953 -117.19393,-143.99934 -64.22702,-14.32413 -134.71084,20.81006 -162.49917,80.329279 -30.14404,59.5058731 -12.21024,137.877753 40.51964,178.618931 21.9465,17.65956 49.11229,28.73493 77.16546,31.35913 0,-19.12567 0,-38.25133 0,-57.377 28.856,24.523 57.712,49.046 86.568,73.569 -28.856,24.52267 -57.712,49.04533 -86.568,73.568 0,-19.88233 0,-39.76467 0,-59.647 -78.46461,-5.07796 -147.70373,-69.04147 -159.6951,-146.626724 -13.16519,-71.321579 23.17138,-148.051526 86.54216,-183.302056 64.23354,-38.17321 152.097659,-28.86181 206.723112,22.25816 C 8.147577,-98.551649 29.984869,-50.080864 29.987,-1 19.991333,-1 9.9956667,-1 0,-1 l 0,1 z"
       inkscape:connector-curvature="0" /></g></svg>