<?xml version="1.0" encoding="UTF-8" standalone="no"?>
<svg
   xmlns:dc="http://purl.org/dc/elements/1.1/"
   xmlns:cc="http://creativecommons.org/ns#"
   xmlns:rdf="http://www.w3.org/1999/02/22-rdf-syntax-ns#"
   xmlns:svg="http://www.w3.org/2000/svg"
   xmlns="http://www.w3.org/2000/svg"
   viewBox="0 0 477.60934 581.41333"
   height="581.41333"
   width="477.60934"
   xml:space="preserve"
   id="svg2"
   version="1.1"><metadata
     id="metadata8"><rdf:RDF><cc:Work
         rdf:about=""><dc:format>image/svg+xml</dc:format><dc:type
           rdf:resource="http://purl.org/dc/dcmitype/StillImage" /></cc:Work></rdf:RDF></metadata><defs
     id="defs6"><clipPath
       id="clipPath18"
       clipPathUnits="userSpaceOnUse"><path
         id="path16"
         d="M 0,436.06 H 358.207 V 0 H 0 Z" /></clipPath><clipPath
       id="clipPath26"
       clipPathUnits="userSpaceOnUse"><path
         id="path24"
         d="M 4,413.06 H 358.207 V 0 H 4 Z" /></clipPath></defs><g
     transform="matrix(1.3333333,0,0,-1.3333333,0,581.41333)"
     id="g10"><g
       id="g12"><g
         clip-path="url(#clipPath18)"
         id="g14"><g
           id="g20"><g
             id="g22" /><g
             id="g38"><g
               style="opacity:0.5"
               id="g36"
               clip-path="url(#clipPath26)"><g
                 id="g30"
                 transform="translate(358.207,176.9912)"><path
                   id="path28"
                   style="fill:#231f20;fill-opacity:1;fill-rule:nonzero;stroke:none"
                   d="M 0,0 C 0,-0.334 -0.011,-0.666 -0.013,-1 H 0 Z" /></g><g
                 id="g34"
                 transform="translate(328.207,176.9912)"><path
                   id="path32"
                   style="fill:#231f20;fill-opacity:1;fill-rule:nonzero;stroke:none"
                   d="m 0,0 c 0,-81.051 -65.72,-146.991 -146.771,-146.991 -81.052,0 -147.546,65.94 -147.546,146.991 0,76.284 57.919,139.172 132.309,146.308 V 88.931 l 86.568,73.569 -86.568,73.568 V 176.421 C -252.51,169.162 -324.207,92.812 -324.207,0 c 0,-97.593 79.51,-176.991 177.104,-176.991 97.259,0 176.548,78.857 177.09,175.991 H 0 Z" /></g></g></g></g><g
           transform="translate(354.207,199.9912)"
           id="g40"><path
             id="path42"
             style="fill:#ffffff;fill-opacity:1;fill-rule:nonzero;stroke:none"
             d="M 0,0 C 0,-0.334 -0.011,-0.666 -0.013,-1 H 0 Z" /></g><g
           transform="translate(324.207,199.9912)"
           id="g44"><path
             id="path46"
             style="fill:#ffffff;fill-opacity:1;fill-rule:nonzero;stroke:none"
             d="m 0,0 c 0,-81.051 -65.72,-146.991 -146.771,-146.991 -81.052,0 -147.546,65.94 -147.546,146.991 0,76.284 57.919,139.172 132.309,146.308 V 88.931 l 86.568,73.569 -86.568,73.568 V 176.421 C -252.51,169.162 -324.207,92.812 -324.207,0 c 0,-97.593 79.51,-176.991 177.104,-176.991 97.259,0 176.548,78.857 177.09,175.991 H 0 Z" /></g></g></g></g></svg>