<?xml version="1.0" encoding="UTF-8" standalone="no"?>
<!-- Generator: Adobe Illustrator 19.2.0, SVG Export Plug-In . SVG Version: 6.00 Build 0)  -->

<svg
   xmlns:dc="http://purl.org/dc/elements/1.1/"
   xmlns:cc="http://creativecommons.org/ns#"
   xmlns:rdf="http://www.w3.org/1999/02/22-rdf-syntax-ns#"
   xmlns:svg="http://www.w3.org/2000/svg"
   xmlns="http://www.w3.org/2000/svg"
   xmlns:sodipodi="http://sodipodi.sourceforge.net/DTD/sodipodi-0.dtd"
   xmlns:inkscape="http://www.inkscape.org/namespaces/inkscape"
   version="1.1"
   id="Layer_1"
   x="0px"
   y="0px"
   viewBox="0 0 159.99999 99.999997"
   xml:space="preserve"
   inkscape:version="0.91 r13725"
   sodipodi:docname="logo.svg"
   width="160"
   height="100"><metadata
     id="metadata26"><rdf:RDF><cc:Work
         rdf:about=""><dc:format>image/svg+xml</dc:format><dc:type
           rdf:resource="http://purl.org/dc/dcmitype/StillImage" /><dc:title></dc:title></cc:Work></rdf:RDF></metadata><defs
     id="defs24" /><sodipodi:namedview
     pagecolor="#fffffa"
     bordercolor="#666666"
     borderopacity="1"
     objecttolerance="10"
     gridtolerance="10"
     guidetolerance="10"
     inkscape:pageopacity="0"
     inkscape:pageshadow="2"
     inkscape:window-width="1439"
     inkscape:window-height="772"
     id="namedview22"
     showgrid="false"
     inkscape:zoom="2.4008138"
     inkscape:cx="26.192586"
     inkscape:cy="49.150002"
     inkscape:window-x="0"
     inkscape:window-y="0"
     inkscape:window-maximized="0"
     inkscape:current-layer="Layer_1" /><style
     type="text/css"
     id="style3">
	.st0{fill:#FFFFFF;}
	.st1{fill:url(#SVGID_1_);}
</style><g
     id="g5"
     transform="matrix(1.0084746,0,0,1.0084746,1.6661017,0.45042059)"><g
       id="g7"><path
         class="st0"
         d="m 60.6,1 5.1,0 0,39.5 -5.1,0 0,-39.5 z"
         id="path9"
         inkscape:connector-curvature="0"
         style="fill:#ffffff" /><path
         class="st0"
         d="m 77.5,1 29,0 -22.4,35 21.6,0 0,4.5 -30.3,0 22.4,-35 -20.3,0 0,-4.5 z"
         id="path11"
         inkscape:connector-curvature="0"
         style="fill:#ffffff" /><path
         class="st0"
         d="m 135.5,0 c 6.1,0 11.1,2.2 15.1,6.6 3.6,4 5.5,8.8 5.5,14.3 0,5.5 -1.9,10.3 -5.8,14.5 -3.8,4.1 -8.8,6.2 -14.8,6.2 -6.1,0 -11,-2.1 -14.9,-6.2 -3.8,-4.1 -5.8,-9 -5.8,-14.5 0,-5.5 1.8,-10.2 5.5,-14.2 4,-4.5 9.1,-6.7 15.2,-6.7 z m 0,5 c -4.2,0 -7.9,1.6 -10.9,4.7 -3,3.1 -4.6,6.9 -4.6,11.3 0,2.9 0.7,5.5 2.1,8 1.4,2.5 3.3,4.4 5.6,5.7 2.4,1.3 4.9,2 7.8,2 2.9,0 5.4,-0.7 7.8,-2 2.4,-1.3 4.2,-3.3 5.6,-5.7 1.4,-2.5 2.1,-5.1 2.1,-8 0,-4.4 -1.5,-8.2 -4.6,-11.3 C 143.3,6.5 139.7,5 135.5,5 Z"
         id="path13"
         inkscape:connector-curvature="0"
         style="fill:#ffffff" /></g><linearGradient
       id="SVGID_1_"
       gradientUnits="userSpaceOnUse"
       x1="67.8703"
       y1="77.956802"
       x2="18.7418"
       y2="30.1164"><stop
         offset="0"
         style="stop-color:#3CFFEE"
         id="stop16" /><stop
         offset="1"
         style="stop-color:#24AABC"
         id="stop18" /></linearGradient><path
       class="st1"
       d="m 89.1,49.2 c 0,0 0,0.4 0,0.4 C 89.1,71.9 71.3,90.1 49,90.1 26.7,90.1 8.1,71.9 8.1,49.6 8.1,27.3 26.1,9.1 48.1,9.1 l 0,-8.2 C 22.1,0.9 0,22.8 0,49.6 c 0,26.9 22.2,48.7 49,48.7 26.8,0 49,-21.9 49,-48.7 0,0 0,-0.4 0,-0.4 l -8.9,0 z"
       id="path20"
       inkscape:connector-curvature="0"
       style="fill:url(#SVGID_1_)" /></g></svg>